<?xml version="1.0" encoding="UTF-8" standalone="no"?>
<!DOCTYPE svg PUBLIC "-//W3C//DTD SVG 1.1//EN"
 "http://www.w3.org/Graphics/SVG/1.1/DTD/svg11.dtd">
<!-- Generated by graphviz version 8.1.0 (20230707.0739)
 -->
<!-- Pages: 1 -->
<svg width="556pt" height="498pt"
 viewBox="0.00 0.00 555.99 497.77" xmlns="http://www.w3.org/2000/svg" xmlns:xlink="http://www.w3.org/1999/xlink">
<g id="graph0" class="graph" transform="scale(1 1) rotate(0) translate(4 493.77)">
<polygon fill="white" stroke="none" points="-4,4 -4,-493.77 551.99,-493.77 551.99,4 -4,4"/>
<g id="clust1" class="cluster">
<title>clusteri (1)</title>
<path fill="none" stroke="black" d="M135.98,-8C135.98,-8 241.98,-8 241.98,-8 247.98,-8 253.98,-14 253.98,-20 253.98,-20 253.98,-469.77 253.98,-469.77 253.98,-475.77 247.98,-481.77 241.98,-481.77 241.98,-481.77 135.98,-481.77 135.98,-481.77 129.98,-481.77 123.98,-475.77 123.98,-469.77 123.98,-469.77 123.98,-20 123.98,-20 123.98,-14 129.98,-8 135.98,-8"/>
<text text-anchor="middle" x="234.36" y="-15.2" font-family="Times,serif" font-size="14.00">i (1)</text>
</g>
<!-- sigma_y -->
<g id="node1" class="node">
<title>sigma_y</title>
<ellipse fill="none" stroke="black" cx="57.98" cy="-198.48" rx="57.98" ry="40.66"/>
<text text-anchor="middle" x="57.98" y="-209.93" font-family="Times,serif" font-size="14.00">sigma_y</text>
<text text-anchor="middle" x="57.98" y="-193.43" font-family="Times,serif" font-size="14.00">~</text>
<text text-anchor="middle" x="57.98" y="-176.93" font-family="Times,serif" font-size="14.00">HalfNormal</text>
</g>
<!-- y -->
<g id="node7" class="node">
<title>y</title>
<ellipse fill="none" stroke="black" cx="185.98" cy="-81.16" rx="41.01" ry="40.66"/>
<text text-anchor="middle" x="185.98" y="-92.61" font-family="Times,serif" font-size="14.00">y</text>
<text text-anchor="middle" x="185.98" y="-76.11" font-family="Times,serif" font-size="14.00">~</text>
<text text-anchor="middle" x="185.98" y="-59.61" font-family="Times,serif" font-size="14.00">Normal</text>
</g>
<!-- sigma_y&#45;&gt;y -->
<g id="edge9" class="edge">
<title>sigma_y&#45;&gt;y</title>
<path fill="none" stroke="black" d="M92.96,-165.96C110.03,-150.58 130.6,-132.05 148.06,-116.33"/>
<polygon fill="black" stroke="black" points="149.74,-119.62 154.83,-110.32 145.06,-114.42 149.74,-119.62"/>
</g>
<!-- beta_y0 -->
<g id="node2" class="node">
<title>beta_y0</title>
<ellipse fill="none" stroke="black" cx="305.98" cy="-315.79" rx="41.54" ry="40.66"/>
<text text-anchor="middle" x="305.98" y="-327.24" font-family="Times,serif" font-size="14.00">beta_y0</text>
<text text-anchor="middle" x="305.98" y="-310.74" font-family="Times,serif" font-size="14.00">~</text>
<text text-anchor="middle" x="305.98" y="-294.24" font-family="Times,serif" font-size="14.00">Normal</text>
</g>
<!-- y_mu -->
<g id="node8" class="node">
<title>y_mu</title>
<polygon fill="none" stroke="black" points="245.11,-227.23 154.86,-227.23 154.86,-169.73 245.11,-169.73 245.11,-227.23"/>
<text text-anchor="middle" x="199.98" y="-209.93" font-family="Times,serif" font-size="14.00">y_mu</text>
<text text-anchor="middle" x="199.98" y="-193.43" font-family="Times,serif" font-size="14.00">~</text>
<text text-anchor="middle" x="199.98" y="-176.93" font-family="Times,serif" font-size="14.00">Deterministic</text>
</g>
<!-- beta_y0&#45;&gt;y_mu -->
<g id="edge6" class="edge">
<title>beta_y0&#45;&gt;y_mu</title>
<path fill="none" stroke="black" d="M278.41,-284.8C264.51,-269.68 247.56,-251.24 232.98,-235.37"/>
<polygon fill="black" stroke="black" points="235.94,-233.34 226.6,-228.34 230.79,-238.07 235.94,-233.34"/>
</g>
<!-- beta_cz -->
<g id="node3" class="node">
<title>beta_cz</title>
<ellipse fill="none" stroke="black" cx="302.98" cy="-433.11" rx="41.01" ry="40.66"/>
<text text-anchor="middle" x="302.98" y="-444.56" font-family="Times,serif" font-size="14.00">beta_cz</text>
<text text-anchor="middle" x="302.98" y="-428.06" font-family="Times,serif" font-size="14.00">~</text>
<text text-anchor="middle" x="302.98" y="-411.56" font-family="Times,serif" font-size="14.00">Normal</text>
</g>
<!-- z -->
<g id="node9" class="node">
<title>z</title>
<ellipse fill="none" stroke="black" cx="198.98" cy="-315.79" rx="47.38" ry="40.66"/>
<text text-anchor="middle" x="198.98" y="-327.24" font-family="Times,serif" font-size="14.00">z</text>
<text text-anchor="middle" x="198.98" y="-310.74" font-family="Times,serif" font-size="14.00">~</text>
<text text-anchor="middle" x="198.98" y="-294.24" font-family="Times,serif" font-size="14.00">Bernoulli</text>
</g>
<!-- beta_cz&#45;&gt;z -->
<g id="edge2" class="edge">
<title>beta_cz&#45;&gt;z</title>
<path fill="none" stroke="black" d="M275.93,-402.11C263.44,-388.26 248.43,-371.62 235,-356.72"/>
<polygon fill="black" stroke="black" points="238.02,-354.74 228.72,-349.66 232.82,-359.43 238.02,-354.74"/>
</g>
<!-- beta_z0 -->
<g id="node4" class="node">
<title>beta_z0</title>
<ellipse fill="none" stroke="black" cx="402.98" cy="-433.11" rx="41.01" ry="40.66"/>
<text text-anchor="middle" x="402.98" y="-444.56" font-family="Times,serif" font-size="14.00">beta_z0</text>
<text text-anchor="middle" x="402.98" y="-428.06" font-family="Times,serif" font-size="14.00">~</text>
<text text-anchor="middle" x="402.98" y="-411.56" font-family="Times,serif" font-size="14.00">Normal</text>
</g>
<!-- beta_z0&#45;&gt;z -->
<g id="edge1" class="edge">
<title>beta_z0&#45;&gt;z</title>
<path fill="none" stroke="black" d="M372.59,-405.53C366.36,-400.8 359.65,-396.19 352.98,-392.45 312.52,-369.75 296.05,-378.05 254.98,-356.45 251.01,-354.36 246.99,-352.03 243.03,-349.57"/>
<polygon fill="black" stroke="black" points="245.22,-346.17 234.93,-343.65 241.41,-352.04 245.22,-346.17"/>
</g>
<!-- beta_cy -->
<g id="node5" class="node">
<title>beta_cy</title>
<ellipse fill="none" stroke="black" cx="406.98" cy="-315.79" rx="41.01" ry="40.66"/>
<text text-anchor="middle" x="406.98" y="-327.24" font-family="Times,serif" font-size="14.00">beta_cy</text>
<text text-anchor="middle" x="406.98" y="-310.74" font-family="Times,serif" font-size="14.00">~</text>
<text text-anchor="middle" x="406.98" y="-294.24" font-family="Times,serif" font-size="14.00">Normal</text>
</g>
<!-- beta_cy&#45;&gt;y_mu -->
<g id="edge5" class="edge">
<title>beta_cy&#45;&gt;y_mu</title>
<path fill="none" stroke="black" d="M376.02,-288.52C369.89,-283.81 363.37,-279.14 356.98,-275.13 324.59,-254.84 285.94,-236.15 255.09,-222.42"/>
<polygon fill="black" stroke="black" points="256.93,-218.97 246.37,-218.15 254.11,-225.38 256.93,-218.97"/>
</g>
<!-- beta_zy -->
<g id="node6" class="node">
<title>beta_zy</title>
<ellipse fill="none" stroke="black" cx="506.98" cy="-315.79" rx="41.01" ry="40.66"/>
<text text-anchor="middle" x="506.98" y="-327.24" font-family="Times,serif" font-size="14.00">beta_zy</text>
<text text-anchor="middle" x="506.98" y="-310.74" font-family="Times,serif" font-size="14.00">~</text>
<text text-anchor="middle" x="506.98" y="-294.24" font-family="Times,serif" font-size="14.00">Normal</text>
</g>
<!-- beta_zy&#45;&gt;y_mu -->
<g id="edge4" class="edge">
<title>beta_zy&#45;&gt;y_mu</title>
<path fill="none" stroke="black" d="M476.79,-287.86C470.53,-283.16 463.77,-278.65 456.98,-275.13 391.9,-241.38 309.52,-220.51 255.82,-209.45"/>
<polygon fill="black" stroke="black" points="256.64,-205.84 246.15,-207.3 255.26,-212.71 256.64,-205.84"/>
</g>
<!-- y_mu&#45;&gt;y -->
<g id="edge10" class="edge">
<title>y_mu&#45;&gt;y</title>
<path fill="none" stroke="black" d="M196.56,-169.27C195.22,-158.23 193.64,-145.23 192.12,-132.68"/>
<polygon fill="black" stroke="black" points="195.48,-132.34 190.8,-122.83 188.53,-133.18 195.48,-132.34"/>
</g>
<!-- z&#45;&gt;y_mu -->
<g id="edge7" class="edge">
<title>z&#45;&gt;y_mu</title>
<path fill="none" stroke="black" d="M199.33,-274.78C199.43,-262.95 199.54,-250.02 199.65,-238.27"/>
<polygon fill="black" stroke="black" points="203.15,-238.47 199.74,-228.44 196.15,-238.41 203.15,-238.47"/>
</g>
<!-- c -->
<g id="node10" class="node">
<title>c</title>
<ellipse fill="none" stroke="black" cx="185.98" cy="-433.11" rx="41.01" ry="40.66"/>
<text text-anchor="middle" x="185.98" y="-444.56" font-family="Times,serif" font-size="14.00">c</text>
<text text-anchor="middle" x="185.98" y="-428.06" font-family="Times,serif" font-size="14.00">~</text>
<text text-anchor="middle" x="185.98" y="-411.56" font-family="Times,serif" font-size="14.00">Normal</text>
</g>
<!-- c&#45;&gt;y_mu -->
<g id="edge8" class="edge">
<title>c&#45;&gt;y_mu</title>
<path fill="none" stroke="black" d="M162.53,-399.46C154.7,-386.68 146.96,-371.5 142.98,-356.45 133.75,-321.51 131.52,-309.41 142.98,-275.13 147.68,-261.09 156.13,-247.57 165.1,-235.93"/>
<polygon fill="black" stroke="black" points="168.42,-238.39 172.01,-228.43 162.99,-233.98 168.42,-238.39"/>
</g>
<!-- c&#45;&gt;z -->
<g id="edge3" class="edge">
<title>c&#45;&gt;z</title>
<path fill="none" stroke="black" d="M190.46,-392.42C191.37,-384.36 192.33,-375.78 193.28,-367.39"/>
<polygon fill="black" stroke="black" points="196.86,-367.88 194.5,-357.55 189.9,-367.1 196.86,-367.88"/>
</g>
</g>
</svg>
