<?xml version="1.0" encoding="UTF-8" standalone="no"?>
<!DOCTYPE svg PUBLIC "-//W3C//DTD SVG 1.1//EN"
 "http://www.w3.org/Graphics/SVG/1.1/DTD/svg11.dtd">
<!-- Generated by graphviz version 2.43.0 (0)
 -->
<!-- Title: %3 Pages: 1 -->
<svg width="504pt" height="260pt"
 viewBox="0.00 0.00 504.00 259.91" xmlns="http://www.w3.org/2000/svg" xmlns:xlink="http://www.w3.org/1999/xlink">
<g id="graph0" class="graph" transform="scale(1 1) rotate(0) translate(4 255.91)">
<title>%3</title>
<polygon fill="white" stroke="transparent" points="-4,4 -4,-255.91 500,-255.91 500,4 -4,4"/>
<g id="clust1" class="cluster">
<title>clustercut (5) x components (3)</title>
<path fill="none" stroke="black" d="M20,-129.95C20,-129.95 476,-129.95 476,-129.95 482,-129.95 488,-135.95 488,-141.95 488,-141.95 488,-231.91 488,-231.91 488,-237.91 482,-243.91 476,-243.91 476,-243.91 20,-243.91 20,-243.91 14,-243.91 8,-237.91 8,-231.91 8,-231.91 8,-141.95 8,-141.95 8,-135.95 14,-129.95 20,-129.95"/>
<text text-anchor="middle" x="392.5" y="-137.75" font-family="Times,serif" font-size="14.00">cut (5) x components (3)</text>
</g>
<g id="clust2" class="cluster">
<title>clusterobs (53940)</title>
<path fill="none" stroke="black" d="M157,-8C157,-8 345,-8 345,-8 351,-8 357,-14 357,-20 357,-20 357,-109.95 357,-109.95 357,-115.95 351,-121.95 345,-121.95 345,-121.95 157,-121.95 157,-121.95 151,-121.95 145,-115.95 145,-109.95 145,-109.95 145,-20 145,-20 145,-14 151,-8 157,-8"/>
<text text-anchor="middle" x="306.5" y="-15.8" font-family="Times,serif" font-size="14.00">obs (53940)</text>
</g>
<!-- mix_means -->
<g id="node1" class="node">
<title>mix_means</title>
<ellipse fill="none" stroke="black" cx="412" cy="-198.43" rx="67.76" ry="37.45"/>
<text text-anchor="middle" x="412" y="-209.73" font-family="Times,serif" font-size="14.00">mix_means</text>
<text text-anchor="middle" x="412" y="-194.73" font-family="Times,serif" font-size="14.00">~</text>
<text text-anchor="middle" x="412" y="-179.73" font-family="Times,serif" font-size="14.00">Normal</text>
</g>
<!-- price -->
<g id="node4" class="node">
<title>price</title>
<ellipse fill="lightgrey" stroke="black" cx="251" cy="-76.48" rx="97.66" ry="37.45"/>
<text text-anchor="middle" x="251" y="-87.78" font-family="Times,serif" font-size="14.00">price</text>
<text text-anchor="middle" x="251" y="-72.78" font-family="Times,serif" font-size="14.00">~</text>
<text text-anchor="middle" x="251" y="-57.78" font-family="Times,serif" font-size="14.00">MarginalMixture</text>
</g>
<!-- mix_means&#45;&gt;price -->
<g id="edge1" class="edge">
<title>mix_means&#45;&gt;price</title>
<path fill="none" stroke="black" d="M378.11,-165.63C365.03,-153.93 349.7,-140.87 335,-129.95 327.7,-124.53 319.84,-119.11 311.95,-113.92"/>
<polygon fill="black" stroke="black" points="313.7,-110.89 303.4,-108.39 309.9,-116.76 313.7,-110.89"/>
</g>
<!-- mix_weights -->
<g id="node2" class="node">
<title>mix_weights</title>
<ellipse fill="none" stroke="black" cx="251" cy="-198.43" rx="74.91" ry="37.45"/>
<text text-anchor="middle" x="251" y="-209.73" font-family="Times,serif" font-size="14.00">mix_weights</text>
<text text-anchor="middle" x="251" y="-194.73" font-family="Times,serif" font-size="14.00">~</text>
<text text-anchor="middle" x="251" y="-179.73" font-family="Times,serif" font-size="14.00">Dirichlet</text>
</g>
<!-- mix_weights&#45;&gt;price -->
<g id="edge2" class="edge">
<title>mix_weights&#45;&gt;price</title>
<path fill="none" stroke="black" d="M251,-160.79C251,-149.38 251,-136.65 251,-124.63"/>
<polygon fill="black" stroke="black" points="254.5,-124.31 251,-114.31 247.5,-124.31 254.5,-124.31"/>
</g>
<!-- mix_stds -->
<g id="node3" class="node">
<title>mix_stds</title>
<ellipse fill="none" stroke="black" cx="87" cy="-198.43" rx="70.92" ry="37.45"/>
<text text-anchor="middle" x="87" y="-209.73" font-family="Times,serif" font-size="14.00">mix_stds</text>
<text text-anchor="middle" x="87" y="-194.73" font-family="Times,serif" font-size="14.00">~</text>
<text text-anchor="middle" x="87" y="-179.73" font-family="Times,serif" font-size="14.00">HalfNormal</text>
</g>
<!-- mix_stds&#45;&gt;price -->
<g id="edge3" class="edge">
<title>mix_stds&#45;&gt;price</title>
<path fill="none" stroke="black" d="M122.36,-165.74C135.97,-154.05 151.87,-140.97 167,-129.95 174.53,-124.47 182.64,-118.95 190.74,-113.67"/>
<polygon fill="black" stroke="black" points="192.63,-116.61 199.15,-108.26 188.85,-110.72 192.63,-116.61"/>
</g>
</g>
</svg>
