<?xml version="1.0" encoding="UTF-8" standalone="no"?>
<!DOCTYPE svg PUBLIC "-//W3C//DTD SVG 1.1//EN"
 "http://www.w3.org/Graphics/SVG/1.1/DTD/svg11.dtd">
<!-- Generated by graphviz version 2.40.1 (20161225.0304)
 -->
<!-- Title: %3 Pages: 1 -->
<svg width="308pt" height="200pt"
 viewBox="0.00 0.00 307.68 200.08" xmlns="http://www.w3.org/2000/svg" xmlns:xlink="http://www.w3.org/1999/xlink">
<g id="graph0" class="graph" transform="scale(1 1) rotate(0) translate(4 196.0822)">
<title>%3</title>
<polygon fill="#ffffff" stroke="transparent" points="-4,4 -4,-196.0822 303.6812,-196.0822 303.6812,4 -4,4"/>
<!-- choice_only -->
<g id="node1" class="node">
<title>choice_only</title>
<polygon fill="#d3d3d3" stroke="#000000" points="146.3915,-23.7354 146.3915,-57.3935 109.1643,-81.1934 56.517,-81.1934 19.2897,-57.3935 19.2897,-23.7354 56.517,.0645 109.1643,.0645 146.3915,-23.7354"/>
<text text-anchor="middle" x="82.8406" y="-51.8644" font-family="Times,serif" font-size="14.00" fill="#000000">choice_only</text>
<text text-anchor="middle" x="82.8406" y="-36.8644" font-family="Times,serif" font-size="14.00" fill="#000000">~</text>
<text text-anchor="middle" x="82.8406" y="-21.8644" font-family="Times,serif" font-size="14.00" fill="#000000">Potential</text>
</g>
<!-- a -->
<g id="node2" class="node">
<title>a</title>
<ellipse fill="none" stroke="#000000" cx="43.8406" cy="-154.6055" rx="43.6818" ry="37.4533"/>
<text text-anchor="middle" x="43.8406" y="-165.9055" font-family="Times,serif" font-size="14.00" fill="#000000">a</text>
<text text-anchor="middle" x="43.8406" y="-150.9055" font-family="Times,serif" font-size="14.00" fill="#000000">~</text>
<text text-anchor="middle" x="43.8406" y="-135.9055" font-family="Times,serif" font-size="14.00" fill="#000000">Uniform</text>
</g>
<!-- a&#45;&gt;choice_only -->
<g id="edge6" class="edge">
<title>a&#45;&gt;choice_only</title>
<path fill="none" stroke="#000000" d="M56.1805,-118.5222C59.1949,-109.7077 62.4744,-100.1181 65.6693,-90.7758"/>
<polygon fill="#000000" stroke="#000000" points="69.0292,-91.7671 68.9534,-81.1725 62.4058,-89.502 69.0292,-91.7671"/>
</g>
<!-- choice_rt -->
<g id="node5" class="node">
<title>choice_rt</title>
<polygon fill="#d3d3d3" stroke="#000000" points="266.9007,-23.7354 266.9007,-57.3935 236.9904,-81.1934 194.6908,-81.1934 164.7805,-57.3935 164.7805,-23.7354 194.6908,.0645 236.9904,.0645 266.9007,-23.7354"/>
<text text-anchor="middle" x="215.8406" y="-51.8644" font-family="Times,serif" font-size="14.00" fill="#000000">choice_rt</text>
<text text-anchor="middle" x="215.8406" y="-36.8644" font-family="Times,serif" font-size="14.00" fill="#000000">~</text>
<text text-anchor="middle" x="215.8406" y="-21.8644" font-family="Times,serif" font-size="14.00" fill="#000000">Potential</text>
</g>
<!-- a&#45;&gt;choice_rt -->
<g id="edge3" class="edge">
<title>a&#45;&gt;choice_rt</title>
<path fill="none" stroke="#000000" d="M77.534,-130.2696C83.895,-125.8213 90.5319,-121.2773 96.8406,-117.1289 122.507,-100.2517 129.9985,-97.7358 155.8406,-81.1289 159.9231,-78.5054 164.1383,-75.751 168.3534,-72.9648"/>
<polygon fill="#000000" stroke="#000000" points="170.5786,-75.688 176.9628,-67.2327 166.6993,-69.8613 170.5786,-75.688"/>
</g>
<!-- v -->
<g id="node3" class="node">
<title>v</title>
<ellipse fill="none" stroke="#000000" cx="149.8406" cy="-154.6055" rx="43.6818" ry="37.4533"/>
<text text-anchor="middle" x="149.8406" y="-165.9055" font-family="Times,serif" font-size="14.00" fill="#000000">v</text>
<text text-anchor="middle" x="149.8406" y="-150.9055" font-family="Times,serif" font-size="14.00" fill="#000000">~</text>
<text text-anchor="middle" x="149.8406" y="-135.9055" font-family="Times,serif" font-size="14.00" fill="#000000">Uniform</text>
</g>
<!-- v&#45;&gt;choice_only -->
<g id="edge4" class="edge">
<title>v&#45;&gt;choice_only</title>
<path fill="none" stroke="#000000" d="M130.1008,-121.0063C124.3711,-111.2537 117.9913,-100.3947 111.8201,-89.8905"/>
<polygon fill="#000000" stroke="#000000" points="114.7874,-88.0317 106.7041,-81.1826 108.7519,-91.5776 114.7874,-88.0317"/>
</g>
<!-- v&#45;&gt;choice_rt -->
<g id="edge1" class="edge">
<title>v&#45;&gt;choice_rt</title>
<path fill="none" stroke="#000000" d="M169.2858,-121.0063C175.1083,-110.9457 181.6121,-99.7077 187.869,-88.8965"/>
<polygon fill="#000000" stroke="#000000" points="191.0665,-90.3589 193.0463,-79.9506 185.008,-86.8525 191.0665,-90.3589"/>
</g>
<!-- t -->
<g id="node4" class="node">
<title>t</title>
<ellipse fill="none" stroke="#000000" cx="255.8406" cy="-154.6055" rx="43.6818" ry="37.4533"/>
<text text-anchor="middle" x="255.8406" y="-165.9055" font-family="Times,serif" font-size="14.00" fill="#000000">t</text>
<text text-anchor="middle" x="255.8406" y="-150.9055" font-family="Times,serif" font-size="14.00" fill="#000000">~</text>
<text text-anchor="middle" x="255.8406" y="-135.9055" font-family="Times,serif" font-size="14.00" fill="#000000">Uniform</text>
</g>
<!-- t&#45;&gt;choice_only -->
<g id="edge5" class="edge">
<title>t&#45;&gt;choice_only</title>
<path fill="none" stroke="#000000" d="M222.0787,-130.3727C215.7243,-125.9144 209.1075,-121.3403 202.8406,-117.1289 181.5729,-102.8365 157.8474,-87.5615 137.1441,-74.4445"/>
<polygon fill="#000000" stroke="#000000" points="138.7954,-71.3478 128.4722,-68.9642 135.0558,-77.2652 138.7954,-71.3478"/>
</g>
<!-- t&#45;&gt;choice_rt -->
<g id="edge2" class="edge">
<title>t&#45;&gt;choice_rt</title>
<path fill="none" stroke="#000000" d="M243.1844,-118.5222C240.0927,-109.7077 236.7291,-100.1181 233.4523,-90.7758"/>
<polygon fill="#000000" stroke="#000000" points="236.6965,-89.4504 230.0839,-81.1725 230.0911,-91.7674 236.6965,-89.4504"/>
</g>
</g>
</svg>
