<?xml version="1.0" encoding="UTF-8" standalone="no"?>
<!DOCTYPE svg PUBLIC "-//W3C//DTD SVG 1.1//EN"
 "http://www.w3.org/Graphics/SVG/1.1/DTD/svg11.dtd">
<!-- Generated by graphviz version 2.43.0 (0)
 -->
<!-- Title: %3 Pages: 1 -->
<svg width="582pt" height="260pt"
 viewBox="0.00 0.00 582.00 259.91" xmlns="http://www.w3.org/2000/svg" xmlns:xlink="http://www.w3.org/1999/xlink">
<g id="graph0" class="graph" transform="scale(1 1) rotate(0) translate(4 255.91)">
<title>%3</title>
<polygon fill="white" stroke="transparent" points="-4,4 -4,-255.91 578,-255.91 578,4 -4,4"/>
<g id="clust1" class="cluster">
<title>clustervars (2)</title>
<path fill="none" stroke="black" d="M20,-129.95C20,-129.95 288,-129.95 288,-129.95 294,-129.95 300,-135.95 300,-141.95 300,-141.95 300,-231.91 300,-231.91 300,-237.91 294,-243.91 288,-243.91 288,-243.91 20,-243.91 20,-243.91 14,-243.91 8,-237.91 8,-231.91 8,-231.91 8,-141.95 8,-141.95 8,-135.95 14,-129.95 20,-129.95"/>
<text text-anchor="middle" x="264.5" y="-137.75" font-family="Times,serif" font-size="14.00">vars (2)</text>
</g>
<g id="clust2" class="cluster">
<title>clusterlags (2) x vars (2) x cross_vars (2)</title>
<path fill="none" stroke="black" d="M320,-129.95C320,-129.95 554,-129.95 554,-129.95 560,-129.95 566,-135.95 566,-141.95 566,-141.95 566,-231.91 566,-231.91 566,-237.91 560,-243.91 554,-243.91 554,-243.91 320,-243.91 320,-243.91 314,-243.91 308,-237.91 308,-231.91 308,-231.91 308,-141.95 308,-141.95 308,-135.95 314,-129.95 320,-129.95"/>
<text text-anchor="middle" x="437" y="-137.75" font-family="Times,serif" font-size="14.00">lags (2) x vars (2) x cross_vars (2)</text>
</g>
<g id="clust3" class="cluster">
<title>clustertime (120) x vars (2)</title>
<path fill="none" stroke="black" d="M174,-8C174,-8 313,-8 313,-8 319,-8 325,-14 325,-20 325,-20 325,-109.95 325,-109.95 325,-115.95 319,-121.95 313,-121.95 313,-121.95 174,-121.95 174,-121.95 168,-121.95 162,-115.95 162,-109.95 162,-109.95 162,-20 162,-20 162,-14 168,-8 174,-8"/>
<text text-anchor="middle" x="243.5" y="-15.8" font-family="Times,serif" font-size="14.00">time (120) x vars (2)</text>
</g>
<!-- intercept -->
<g id="node1" class="node">
<title>intercept</title>
<ellipse fill="none" stroke="black" cx="234" cy="-198.43" rx="57.97" ry="37.45"/>
<text text-anchor="middle" x="234" y="-209.73" font-family="Times,serif" font-size="14.00">intercept</text>
<text text-anchor="middle" x="234" y="-194.73" font-family="Times,serif" font-size="14.00">~</text>
<text text-anchor="middle" x="234" y="-179.73" font-family="Times,serif" font-size="14.00">Normal</text>
</g>
<!-- obs -->
<g id="node4" class="node">
<title>obs</title>
<ellipse fill="lightgrey" stroke="black" cx="234" cy="-76.48" rx="49.49" ry="37.45"/>
<text text-anchor="middle" x="234" y="-87.78" font-family="Times,serif" font-size="14.00">obs</text>
<text text-anchor="middle" x="234" y="-72.78" font-family="Times,serif" font-size="14.00">~</text>
<text text-anchor="middle" x="234" y="-57.78" font-family="Times,serif" font-size="14.00">Normal</text>
</g>
<!-- intercept&#45;&gt;obs -->
<g id="edge2" class="edge">
<title>intercept&#45;&gt;obs</title>
<path fill="none" stroke="black" d="M234,-160.79C234,-149.38 234,-136.65 234,-124.63"/>
<polygon fill="black" stroke="black" points="237.5,-124.31 234,-114.31 230.5,-124.31 237.5,-124.31"/>
</g>
<!-- noise -->
<g id="node2" class="node">
<title>noise</title>
<ellipse fill="none" stroke="black" cx="87" cy="-198.43" rx="70.92" ry="37.45"/>
<text text-anchor="middle" x="87" y="-209.73" font-family="Times,serif" font-size="14.00">noise</text>
<text text-anchor="middle" x="87" y="-194.73" font-family="Times,serif" font-size="14.00">~</text>
<text text-anchor="middle" x="87" y="-179.73" font-family="Times,serif" font-size="14.00">HalfNormal</text>
</g>
<!-- noise&#45;&gt;obs -->
<g id="edge4" class="edge">
<title>noise&#45;&gt;obs</title>
<path fill="none" stroke="black" d="M123.41,-166.24C137,-154.73 152.62,-141.64 167,-129.95 174.91,-123.52 183.42,-116.75 191.64,-110.28"/>
<polygon fill="black" stroke="black" points="194.02,-112.86 199.73,-103.94 189.7,-107.35 194.02,-112.86"/>
</g>
<!-- lag_coefs -->
<g id="node3" class="node">
<title>lag_coefs</title>
<ellipse fill="none" stroke="black" cx="374" cy="-198.43" rx="57.97" ry="37.45"/>
<text text-anchor="middle" x="374" y="-209.73" font-family="Times,serif" font-size="14.00">lag_coefs</text>
<text text-anchor="middle" x="374" y="-194.73" font-family="Times,serif" font-size="14.00">~</text>
<text text-anchor="middle" x="374" y="-179.73" font-family="Times,serif" font-size="14.00">Normal</text>
</g>
<!-- lag_coefs&#45;&gt;obs -->
<g id="edge1" class="edge">
<title>lag_coefs&#45;&gt;obs</title>
<path fill="none" stroke="black" d="M343.41,-166.35C331.43,-154.6 317.37,-141.33 304,-129.95 295.68,-122.87 286.5,-115.62 277.61,-108.86"/>
<polygon fill="black" stroke="black" points="279.65,-106.02 269.56,-102.81 275.45,-111.61 279.65,-106.02"/>
</g>
<!-- obs&#45;&gt;obs -->
<g id="edge3" class="edge">
<title>obs&#45;&gt;obs</title>
<path fill="none" stroke="black" d="M273.86,-98.91C288.98,-99.77 301.5,-92.3 301.5,-76.48 301.5,-64.36 294.16,-57.14 283.93,-54.81"/>
<polygon fill="black" stroke="black" points="284.09,-51.31 273.86,-54.04 283.56,-58.29 284.09,-51.31"/>
</g>
</g>
</svg>
