<?xml version="1.0" encoding="UTF-8" standalone="no"?>
<!DOCTYPE svg PUBLIC "-//W3C//DTD SVG 1.1//EN"
 "http://www.w3.org/Graphics/SVG/1.1/DTD/svg11.dtd">
<!-- Generated by graphviz version 2.42.3 (20191010.1750)
 -->
<!-- Title: %3 Pages: 1 -->
<svg width="392pt" height="249pt"
 viewBox="0.00 0.00 392.00 249.42" xmlns="http://www.w3.org/2000/svg" xmlns:xlink="http://www.w3.org/1999/xlink">
<g id="graph0" class="graph" transform="scale(1 1) rotate(0) translate(4 245.42)">
<title>%3</title>
<polygon fill="white" stroke="transparent" points="-4,4 -4,-245.42 388,-245.42 388,4 -4,4"/>
<g id="clust1" class="cluster">
<title>cluster15</title>
<path fill="none" stroke="black" d="M20,-124.71C20,-124.71 136,-124.71 136,-124.71 142,-124.71 148,-130.71 148,-136.71 148,-136.71 148,-221.42 148,-221.42 148,-227.42 142,-233.42 136,-233.42 136,-233.42 20,-233.42 20,-233.42 14,-233.42 8,-227.42 8,-221.42 8,-221.42 8,-136.71 8,-136.71 8,-130.71 14,-124.71 20,-124.71"/>
<text text-anchor="middle" x="133" y="-131.51" font-family="Times,serif" font-size="14.00">15</text>
</g>
<g id="clust2" class="cluster">
<title>cluster60</title>
<path fill="none" stroke="black" d="M168,-124.71C168,-124.71 364,-124.71 364,-124.71 370,-124.71 376,-130.71 376,-136.71 376,-136.71 376,-221.42 376,-221.42 376,-227.42 370,-233.42 364,-233.42 364,-233.42 168,-233.42 168,-233.42 162,-233.42 156,-227.42 156,-221.42 156,-221.42 156,-136.71 156,-136.71 156,-130.71 162,-124.71 168,-124.71"/>
<text text-anchor="middle" x="361" y="-131.51" font-family="Times,serif" font-size="14.00">60</text>
</g>
<g id="clust3" class="cluster">
<title>cluster1,083</title>
<path fill="none" stroke="black" d="M121,-8C121,-8 223,-8 223,-8 229,-8 235,-14 235,-20 235,-20 235,-104.71 235,-104.71 235,-110.71 229,-116.71 223,-116.71 223,-116.71 121,-116.71 121,-116.71 115,-116.71 109,-110.71 109,-104.71 109,-104.71 109,-20 109,-20 109,-14 115,-8 121,-8"/>
<text text-anchor="middle" x="211.25" y="-14.8" font-family="Times,serif" font-size="14.00">1,083</text>
</g>
<!-- house_effect -->
<g id="node1" class="node">
<title>house_effect</title>
<ellipse fill="none" stroke="black" cx="78" cy="-190.07" rx="61.92" ry="35.21"/>
<text text-anchor="middle" x="78" y="-199.87" font-family="Times,serif" font-size="14.00">house_effect</text>
<text text-anchor="middle" x="78" y="-185.87" font-family="Times,serif" font-size="14.00">~</text>
<text text-anchor="middle" x="78" y="-171.87" font-family="Times,serif" font-size="14.00">Normal</text>
</g>
<!-- N_approve -->
<g id="node3" class="node">
<title>N_approve</title>
<ellipse fill="lightgrey" stroke="black" cx="172" cy="-73.36" rx="55.09" ry="35.21"/>
<text text-anchor="middle" x="172" y="-83.16" font-family="Times,serif" font-size="14.00">N_approve</text>
<text text-anchor="middle" x="172" y="-69.16" font-family="Times,serif" font-size="14.00">~</text>
<text text-anchor="middle" x="172" y="-55.16" font-family="Times,serif" font-size="14.00">Binomial</text>
</g>
<!-- house_effect&#45;&gt;N_approve -->
<g id="edge1" class="edge">
<title>house_effect&#45;&gt;N_approve</title>
<path fill="none" stroke="black" d="M103.69,-157.72C114.97,-143.95 128.33,-127.65 140.23,-113.12"/>
<polygon fill="black" stroke="black" points="143.04,-115.22 146.67,-105.27 137.63,-110.78 143.04,-115.22"/>
</g>
<!-- month_effect -->
<g id="node2" class="node">
<title>month_effect</title>
<ellipse fill="none" stroke="black" cx="266" cy="-190.07" rx="101.6" ry="35.21"/>
<text text-anchor="middle" x="266" y="-199.87" font-family="Times,serif" font-size="14.00">month_effect</text>
<text text-anchor="middle" x="266" y="-185.87" font-family="Times,serif" font-size="14.00">~</text>
<text text-anchor="middle" x="266" y="-171.87" font-family="Times,serif" font-size="14.00">GaussianRandomWalk</text>
</g>
<!-- month_effect&#45;&gt;N_approve -->
<g id="edge2" class="edge">
<title>month_effect&#45;&gt;N_approve</title>
<path fill="none" stroke="black" d="M238.81,-155.89C227.84,-142.5 215.11,-126.97 203.72,-113.07"/>
<polygon fill="black" stroke="black" points="206.24,-110.62 197.2,-105.1 200.83,-115.06 206.24,-110.62"/>
</g>
</g>
</svg>
