<?xml version="1.0" encoding="UTF-8" standalone="no"?>
<!DOCTYPE svg PUBLIC "-//W3C//DTD SVG 1.1//EN"
 "http://www.w3.org/Graphics/SVG/1.1/DTD/svg11.dtd">
<!-- Generated by graphviz version 2.42.3 (20191010.1750)
 -->
<!-- Title: %3 Pages: 1 -->
<svg width="1091pt" height="348pt"
 viewBox="0.00 0.00 1091.00 348.13" xmlns="http://www.w3.org/2000/svg" xmlns:xlink="http://www.w3.org/1999/xlink">
<g id="graph0" class="graph" transform="scale(1 1) rotate(0) translate(4 344.13)">
<title>%3</title>
<polygon fill="white" stroke="transparent" points="-4,4 -4,-344.13 1087,-344.13 1087,4 -4,4"/>
<g id="clust1" class="cluster">
<title>cluster3</title>
<path fill="none" stroke="black" d="M20,-223.42C20,-223.42 256,-223.42 256,-223.42 262,-223.42 268,-229.42 268,-235.42 268,-235.42 268,-320.13 268,-320.13 268,-326.13 262,-332.13 256,-332.13 256,-332.13 20,-332.13 20,-332.13 14,-332.13 8,-326.13 8,-320.13 8,-320.13 8,-235.42 8,-235.42 8,-229.42 14,-223.42 20,-223.42"/>
<text text-anchor="middle" x="256.5" y="-230.22" font-family="Times,serif" font-size="14.00">3</text>
</g>
<g id="clust2" class="cluster">
<title>cluster4</title>
<path fill="none" stroke="black" d="M252,-125.07C252,-125.07 350,-125.07 350,-125.07 356,-125.07 362,-131.07 362,-137.07 362,-137.07 362,-201.07 362,-201.07 362,-207.07 356,-213.07 350,-213.07 350,-213.07 252,-213.07 252,-213.07 246,-213.07 240,-207.07 240,-201.07 240,-201.07 240,-137.07 240,-137.07 240,-131.07 246,-125.07 252,-125.07"/>
<text text-anchor="middle" x="350.5" y="-131.87" font-family="Times,serif" font-size="14.00">4</text>
</g>
<g id="clust3" class="cluster">
<title>cluster14</title>
<path fill="none" stroke="black" d="M288,-223.42C288,-223.42 496,-223.42 496,-223.42 502,-223.42 508,-229.42 508,-235.42 508,-235.42 508,-320.13 508,-320.13 508,-326.13 502,-332.13 496,-332.13 496,-332.13 288,-332.13 288,-332.13 282,-332.13 276,-326.13 276,-320.13 276,-320.13 276,-235.42 276,-235.42 276,-229.42 282,-223.42 288,-223.42"/>
<text text-anchor="middle" x="493" y="-230.22" font-family="Times,serif" font-size="14.00">14</text>
</g>
<g id="clust4" class="cluster">
<title>cluster15</title>
<path fill="none" stroke="black" d="M382,-125.07C382,-125.07 466,-125.07 466,-125.07 472,-125.07 478,-131.07 478,-137.07 478,-137.07 478,-201.07 478,-201.07 478,-207.07 472,-213.07 466,-213.07 466,-213.07 382,-213.07 382,-213.07 376,-213.07 370,-207.07 370,-201.07 370,-201.07 370,-137.07 370,-137.07 370,-131.07 376,-125.07 382,-125.07"/>
<text text-anchor="middle" x="463" y="-131.87" font-family="Times,serif" font-size="14.00">15</text>
</g>
<g id="clust5" class="cluster">
<title>cluster59</title>
<path fill="none" stroke="black" d="M528,-223.42C528,-223.42 742,-223.42 742,-223.42 748,-223.42 754,-229.42 754,-235.42 754,-235.42 754,-320.13 754,-320.13 754,-326.13 748,-332.13 742,-332.13 742,-332.13 528,-332.13 528,-332.13 522,-332.13 516,-326.13 516,-320.13 516,-320.13 516,-235.42 516,-235.42 516,-229.42 522,-223.42 528,-223.42"/>
<text text-anchor="middle" x="739" y="-230.22" font-family="Times,serif" font-size="14.00">59</text>
</g>
<g id="clust6" class="cluster">
<title>cluster60</title>
<path fill="none" stroke="black" d="M561,-125.07C561,-125.07 645,-125.07 645,-125.07 651,-125.07 657,-131.07 657,-137.07 657,-137.07 657,-201.07 657,-201.07 657,-207.07 651,-213.07 645,-213.07 645,-213.07 561,-213.07 561,-213.07 555,-213.07 549,-207.07 549,-201.07 549,-201.07 549,-137.07 549,-137.07 549,-131.07 555,-125.07 561,-125.07"/>
<text text-anchor="middle" x="642" y="-131.87" font-family="Times,serif" font-size="14.00">60</text>
</g>
<g id="clust7" class="cluster">
<title>cluster4 x 59</title>
<path fill="none" stroke="black" d="M925,-223.42C925,-223.42 1063,-223.42 1063,-223.42 1069,-223.42 1075,-229.42 1075,-235.42 1075,-235.42 1075,-320.13 1075,-320.13 1075,-326.13 1069,-332.13 1063,-332.13 1063,-332.13 925,-332.13 925,-332.13 919,-332.13 913,-326.13 913,-320.13 913,-320.13 913,-235.42 913,-235.42 913,-229.42 919,-223.42 925,-223.42"/>
<text text-anchor="middle" x="1049.5" y="-230.22" font-family="Times,serif" font-size="14.00">4 x 59</text>
</g>
<g id="clust8" class="cluster">
<title>cluster4 x 60</title>
<path fill="none" stroke="black" d="M763,-125.07C763,-125.07 903,-125.07 903,-125.07 909,-125.07 915,-131.07 915,-137.07 915,-137.07 915,-201.07 915,-201.07 915,-207.07 909,-213.07 903,-213.07 903,-213.07 763,-213.07 763,-213.07 757,-213.07 751,-207.07 751,-201.07 751,-201.07 751,-137.07 751,-137.07 751,-131.07 757,-125.07 763,-125.07"/>
<text text-anchor="middle" x="889.5" y="-131.87" font-family="Times,serif" font-size="14.00">4 x 60</text>
</g>
<g id="clust9" class="cluster">
<title>cluster1,083</title>
<path fill="none" stroke="black" d="M300,-8C300,-8 424,-8 424,-8 430,-8 436,-14 436,-20 436,-20 436,-104.71 436,-104.71 436,-110.71 430,-116.71 424,-116.71 424,-116.71 300,-116.71 300,-116.71 294,-116.71 288,-110.71 288,-104.71 288,-104.71 288,-20 288,-20 288,-14 294,-8 300,-8"/>
<text text-anchor="middle" x="412.25" y="-14.8" font-family="Times,serif" font-size="14.00">1,083</text>
</g>
<!-- baseline -->
<g id="node1" class="node">
<title>baseline</title>
<ellipse fill="none" stroke="black" cx="50" cy="-180.07" rx="44" ry="35.21"/>
<text text-anchor="middle" x="50" y="-189.87" font-family="Times,serif" font-size="14.00">baseline</text>
<text text-anchor="middle" x="50" y="-175.87" font-family="Times,serif" font-size="14.00">~</text>
<text text-anchor="middle" x="50" y="-161.87" font-family="Times,serif" font-size="14.00">Normal</text>
</g>
<!-- N_approve -->
<g id="node12" class="node">
<title>N_approve</title>
<ellipse fill="lightgrey" stroke="black" cx="362" cy="-73.36" rx="66.11" ry="35.21"/>
<text text-anchor="middle" x="362" y="-83.16" font-family="Times,serif" font-size="14.00">N_approve</text>
<text text-anchor="middle" x="362" y="-69.16" font-family="Times,serif" font-size="14.00">~</text>
<text text-anchor="middle" x="362" y="-55.16" font-family="Times,serif" font-size="14.00">BetaBinomial</text>
</g>
<!-- baseline&#45;&gt;N_approve -->
<g id="edge9" class="edge">
<title>baseline&#45;&gt;N_approve</title>
<path fill="none" stroke="black" d="M72.69,-149.72C81.24,-140.51 91.67,-131.17 103,-125.07 159.56,-94.6 231.86,-82.3 285.69,-77.4"/>
<polygon fill="black" stroke="black" points="286.19,-80.87 295.86,-76.54 285.6,-73.89 286.19,-80.87"/>
</g>
<!-- theta_offset -->
<g id="node2" class="node">
<title>theta_offset</title>
<ellipse fill="none" stroke="black" cx="171" cy="-180.07" rx="59.3" ry="35.21"/>
<text text-anchor="middle" x="171" y="-189.87" font-family="Times,serif" font-size="14.00">theta_offset</text>
<text text-anchor="middle" x="171" y="-175.87" font-family="Times,serif" font-size="14.00">~</text>
<text text-anchor="middle" x="171" y="-161.87" font-family="Times,serif" font-size="14.00">Exponential</text>
</g>
<!-- theta_offset&#45;&gt;N_approve -->
<g id="edge10" class="edge">
<title>theta_offset&#45;&gt;N_approve</title>
<path fill="none" stroke="black" d="M202.25,-149.77C212.5,-141.09 224.28,-132.06 236,-125.07 254.88,-113.8 276.72,-104.02 296.86,-96.13"/>
<polygon fill="black" stroke="black" points="298.19,-99.36 306.28,-92.52 295.69,-92.83 298.19,-99.36"/>
</g>
<!-- shrinkage_pop -->
<g id="node3" class="node">
<title>shrinkage_pop</title>
<ellipse fill="none" stroke="black" cx="833" cy="-288.78" rx="69.7" ry="35.21"/>
<text text-anchor="middle" x="833" y="-298.58" font-family="Times,serif" font-size="14.00">shrinkage_pop</text>
<text text-anchor="middle" x="833" y="-284.58" font-family="Times,serif" font-size="14.00">~</text>
<text text-anchor="middle" x="833" y="-270.58" font-family="Times,serif" font-size="14.00">HalfNormal</text>
</g>
<!-- month_president_effect -->
<g id="node11" class="node">
<title>month_president_effect</title>
<polygon fill="none" stroke="black" points="907.21,-205.07 758.79,-205.07 758.79,-155.07 907.21,-155.07 907.21,-205.07"/>
<text text-anchor="middle" x="833" y="-189.87" font-family="Times,serif" font-size="14.00">month_president_effect</text>
<text text-anchor="middle" x="833" y="-175.87" font-family="Times,serif" font-size="14.00">~</text>
<text text-anchor="middle" x="833" y="-161.87" font-family="Times,serif" font-size="14.00">Deterministic</text>
</g>
<!-- shrinkage_pop&#45;&gt;month_president_effect -->
<g id="edge5" class="edge">
<title>shrinkage_pop&#45;&gt;month_president_effect</title>
<path fill="none" stroke="black" d="M833,-253.13C833,-240.99 833,-227.36 833,-215.26"/>
<polygon fill="black" stroke="black" points="836.5,-215.08 833,-205.08 829.5,-215.08 836.5,-215.08"/>
</g>
<!-- president_effect_truncated_ -->
<g id="node4" class="node">
<title>president_effect_truncated_</title>
<ellipse fill="none" stroke="black" cx="138" cy="-288.78" rx="121.76" ry="35.21"/>
<text text-anchor="middle" x="138" y="-298.58" font-family="Times,serif" font-size="14.00">president_effect_truncated_</text>
<text text-anchor="middle" x="138" y="-284.58" font-family="Times,serif" font-size="14.00">~</text>
<text text-anchor="middle" x="138" y="-270.58" font-family="Times,serif" font-size="14.00">Normal</text>
</g>
<!-- president_effect -->
<g id="node5" class="node">
<title>president_effect</title>
<polygon fill="none" stroke="black" points="353.93,-205.07 248.07,-205.07 248.07,-155.07 353.93,-155.07 353.93,-205.07"/>
<text text-anchor="middle" x="301" y="-189.87" font-family="Times,serif" font-size="14.00">president_effect</text>
<text text-anchor="middle" x="301" y="-175.87" font-family="Times,serif" font-size="14.00">~</text>
<text text-anchor="middle" x="301" y="-161.87" font-family="Times,serif" font-size="14.00">Deterministic</text>
</g>
<!-- president_effect_truncated_&#45;&gt;president_effect -->
<g id="edge1" class="edge">
<title>president_effect_truncated_&#45;&gt;president_effect</title>
<path fill="none" stroke="black" d="M186.46,-256.05C208.32,-241.74 233.99,-224.93 255.49,-210.86"/>
<polygon fill="black" stroke="black" points="257.66,-213.62 264.11,-205.21 253.83,-207.76 257.66,-213.62"/>
</g>
<!-- president_effect&#45;&gt;N_approve -->
<g id="edge11" class="edge">
<title>president_effect&#45;&gt;N_approve</title>
<path fill="none" stroke="black" d="M314.99,-155.04C321.68,-143.56 329.88,-129.48 337.55,-116.32"/>
<polygon fill="black" stroke="black" points="340.75,-117.79 342.75,-107.39 334.7,-114.27 340.75,-117.79"/>
</g>
<!-- house_effect_truncated_ -->
<g id="node6" class="node">
<title>house_effect_truncated_</title>
<ellipse fill="none" stroke="black" cx="392" cy="-288.78" rx="108.38" ry="35.21"/>
<text text-anchor="middle" x="392" y="-298.58" font-family="Times,serif" font-size="14.00">house_effect_truncated_</text>
<text text-anchor="middle" x="392" y="-284.58" font-family="Times,serif" font-size="14.00">~</text>
<text text-anchor="middle" x="392" y="-270.58" font-family="Times,serif" font-size="14.00">Normal</text>
</g>
<!-- house_effect -->
<g id="node7" class="node">
<title>house_effect</title>
<polygon fill="none" stroke="black" points="470.2,-205.07 377.8,-205.07 377.8,-155.07 470.2,-155.07 470.2,-205.07"/>
<text text-anchor="middle" x="424" y="-189.87" font-family="Times,serif" font-size="14.00">house_effect</text>
<text text-anchor="middle" x="424" y="-175.87" font-family="Times,serif" font-size="14.00">~</text>
<text text-anchor="middle" x="424" y="-161.87" font-family="Times,serif" font-size="14.00">Deterministic</text>
</g>
<!-- house_effect_truncated_&#45;&gt;house_effect -->
<g id="edge2" class="edge">
<title>house_effect_truncated_&#45;&gt;house_effect</title>
<path fill="none" stroke="black" d="M402.3,-253.43C405.98,-241.14 410.13,-227.32 413.8,-215.07"/>
<polygon fill="black" stroke="black" points="417.24,-215.8 416.76,-205.22 410.53,-213.79 417.24,-215.8"/>
</g>
<!-- house_effect&#45;&gt;N_approve -->
<g id="edge8" class="edge">
<title>house_effect&#45;&gt;N_approve</title>
<path fill="none" stroke="black" d="M409.78,-155.04C402.98,-143.56 394.64,-129.48 386.85,-116.32"/>
<polygon fill="black" stroke="black" points="389.67,-114.21 381.56,-107.39 383.64,-117.78 389.67,-114.21"/>
</g>
<!-- month_effect_truncated_ -->
<g id="node8" class="node">
<title>month_effect_truncated_</title>
<ellipse fill="none" stroke="black" cx="635" cy="-288.78" rx="110.78" ry="35.21"/>
<text text-anchor="middle" x="635" y="-298.58" font-family="Times,serif" font-size="14.00">month_effect_truncated_</text>
<text text-anchor="middle" x="635" y="-284.58" font-family="Times,serif" font-size="14.00">~</text>
<text text-anchor="middle" x="635" y="-270.58" font-family="Times,serif" font-size="14.00">Normal</text>
</g>
<!-- month_effect -->
<g id="node9" class="node">
<title>month_effect</title>
<polygon fill="none" stroke="black" points="649.2,-205.07 556.8,-205.07 556.8,-155.07 649.2,-155.07 649.2,-205.07"/>
<text text-anchor="middle" x="603" y="-189.87" font-family="Times,serif" font-size="14.00">month_effect</text>
<text text-anchor="middle" x="603" y="-175.87" font-family="Times,serif" font-size="14.00">~</text>
<text text-anchor="middle" x="603" y="-161.87" font-family="Times,serif" font-size="14.00">Deterministic</text>
</g>
<!-- month_effect_truncated_&#45;&gt;month_effect -->
<g id="edge3" class="edge">
<title>month_effect_truncated_&#45;&gt;month_effect</title>
<path fill="none" stroke="black" d="M624.7,-253.43C621.02,-241.14 616.87,-227.32 613.2,-215.07"/>
<polygon fill="black" stroke="black" points="616.47,-213.79 610.24,-205.22 609.76,-215.8 616.47,-213.79"/>
</g>
<!-- month_effect&#45;&gt;N_approve -->
<g id="edge6" class="edge">
<title>month_effect&#45;&gt;N_approve</title>
<path fill="none" stroke="black" d="M556.84,-158.21C534.32,-148.09 506.79,-135.84 482,-125.07 462.83,-116.74 441.87,-107.82 422.91,-99.82"/>
<polygon fill="black" stroke="black" points="424.06,-96.5 413.48,-95.85 421.34,-102.95 424.06,-96.5"/>
</g>
<!-- rw_innovations -->
<g id="node10" class="node">
<title>rw_innovations</title>
<ellipse fill="none" stroke="black" cx="994" cy="-288.78" rx="72.81" ry="35.21"/>
<text text-anchor="middle" x="994" y="-298.58" font-family="Times,serif" font-size="14.00">rw_innovations</text>
<text text-anchor="middle" x="994" y="-284.58" font-family="Times,serif" font-size="14.00">~</text>
<text text-anchor="middle" x="994" y="-270.58" font-family="Times,serif" font-size="14.00">Normal</text>
</g>
<!-- rw_innovations&#45;&gt;month_president_effect -->
<g id="edge4" class="edge">
<title>rw_innovations&#45;&gt;month_president_effect</title>
<path fill="none" stroke="black" d="M958.27,-257.54C944.24,-246.27 927.76,-233.72 912,-223.42 904.98,-218.83 897.41,-214.3 889.84,-210"/>
<polygon fill="black" stroke="black" points="891.42,-206.87 880.98,-205.07 888.02,-212.99 891.42,-206.87"/>
</g>
<!-- month_president_effect&#45;&gt;N_approve -->
<g id="edge7" class="edge">
<title>month_president_effect&#45;&gt;N_approve</title>
<path fill="none" stroke="black" d="M763.73,-154.95C732.6,-144.73 695.23,-133.3 661,-125.07 585.27,-106.85 497.21,-92.75 436.37,-84.09"/>
<polygon fill="black" stroke="black" points="436.48,-80.58 426.09,-82.65 435.5,-87.51 436.48,-80.58"/>
</g>
</g>
</svg>
