<?xml version="1.0" encoding="UTF-8" standalone="no"?>
<!DOCTYPE svg PUBLIC "-//W3C//DTD SVG 1.1//EN"
 "http://www.w3.org/Graphics/SVG/1.1/DTD/svg11.dtd">
<!-- Generated by graphviz version 2.40.1 (20161225.0304)
 -->
<!-- Title: %3 Pages: 1 -->
<svg width="773pt" height="471pt"
 viewBox="0.00 0.00 773.13 470.81" xmlns="http://www.w3.org/2000/svg" xmlns:xlink="http://www.w3.org/1999/xlink">
<g id="graph0" class="graph" transform="scale(1 1) rotate(0) translate(4 466.8133)">
<title>%3</title>
<polygon fill="#ffffff" stroke="transparent" points="-4,4 -4,-466.8133 769.1335,-466.8133 769.1335,4 -4,4"/>
<g id="clust1" class="cluster">
<title>clusterhousehold (919)</title>
<path fill="none" stroke="#000000" d="M20,-8C20,-8 112,-8 112,-8 118,-8 124,-14 124,-20 124,-20 124,-209.93 124,-209.93 124,-215.93 118,-221.93 112,-221.93 112,-221.93 20,-221.93 20,-221.93 14,-221.93 8,-215.93 8,-209.93 8,-209.93 8,-20 8,-20 8,-14 14,-8 20,-8"/>
<text text-anchor="middle" x="71.5" y="-15.8" font-family="Times,serif" font-size="14.00" fill="#000000">household (919)</text>
</g>
<g id="clust2" class="cluster">
<title>clustercounty (85) x feature (2)</title>
<path fill="none" stroke="#000000" d="M532,-351.8366C532,-351.8366 659,-351.8366 659,-351.8366 665,-351.8366 671,-357.8366 671,-363.8366 671,-363.8366 671,-431.8366 671,-431.8366 671,-437.8366 665,-443.8366 659,-443.8366 659,-443.8366 532,-443.8366 532,-443.8366 526,-443.8366 520,-437.8366 520,-431.8366 520,-431.8366 520,-363.8366 520,-363.8366 520,-357.8366 526,-351.8366 532,-351.8366"/>
<text text-anchor="middle" x="595.5" y="-359.6366" font-family="Times,serif" font-size="14.00" fill="#000000">county (85) x feature (2)</text>
</g>
<g id="clust3" class="cluster">
<title>clustercounty (85)</title>
<path fill="none" stroke="#000000" d="M326,-129.93C326,-129.93 500,-129.93 500,-129.93 506,-129.93 512,-135.93 512,-141.93 512,-141.93 512,-442.8133 512,-442.8133 512,-448.8133 506,-454.8133 500,-454.8133 500,-454.8133 326,-454.8133 326,-454.8133 320,-454.8133 314,-448.8133 314,-442.8133 314,-442.8133 314,-141.93 314,-141.93 314,-135.93 320,-129.93 326,-129.93"/>
<text text-anchor="middle" x="472" y="-137.73" font-family="Times,serif" font-size="14.00" fill="#000000">county (85)</text>
</g>
<!-- county_idx -->
<g id="node1" class="node">
<title>county_idx</title>
<path fill="#d3d3d3" stroke="#000000" d="M99,-213.93C99,-213.93 33,-213.93 33,-213.93 27,-213.93 21,-207.93 21,-201.93 21,-201.93 21,-172.93 21,-172.93 21,-166.93 27,-160.93 33,-160.93 33,-160.93 99,-160.93 99,-160.93 105,-160.93 111,-166.93 111,-172.93 111,-172.93 111,-201.93 111,-201.93 111,-207.93 105,-213.93 99,-213.93"/>
<text text-anchor="middle" x="66" y="-198.73" font-family="Times,serif" font-size="14.00" fill="#000000">county_idx</text>
<text text-anchor="middle" x="66" y="-183.73" font-family="Times,serif" font-size="14.00" fill="#000000">~</text>
<text text-anchor="middle" x="66" y="-168.73" font-family="Times,serif" font-size="14.00" fill="#000000">ConstantData</text>
</g>
<!-- log_radon -->
<g id="node2" class="node">
<title>log_radon</title>
<ellipse fill="#d3d3d3" stroke="#000000" cx="66" cy="-76.4767" rx="50.41" ry="37.4533"/>
<text text-anchor="middle" x="66" y="-87.7767" font-family="Times,serif" font-size="14.00" fill="#000000">log_radon</text>
<text text-anchor="middle" x="66" y="-72.7767" font-family="Times,serif" font-size="14.00" fill="#000000">~</text>
<text text-anchor="middle" x="66" y="-57.7767" font-family="Times,serif" font-size="14.00" fill="#000000">Normal</text>
</g>
<!-- county_idx&#45;&gt;log_radon -->
<g id="edge8" class="edge">
<title>county_idx&#45;&gt;log_radon</title>
<path fill="none" stroke="#000000" d="M66,-160.8539C66,-149.9351 66,-136.944 66,-124.4675"/>
<polygon fill="#000000" stroke="#000000" points="69.5001,-124.1649 66,-114.165 62.5001,-124.165 69.5001,-124.1649"/>
</g>
<!-- county_X -->
<g id="node3" class="node">
<title>county_X</title>
<path fill="#d3d3d3" stroke="#000000" d="M606,-435.8366C606,-435.8366 540,-435.8366 540,-435.8366 534,-435.8366 528,-429.8366 528,-423.8366 528,-423.8366 528,-394.8366 528,-394.8366 528,-388.8366 534,-382.8366 540,-382.8366 540,-382.8366 606,-382.8366 606,-382.8366 612,-382.8366 618,-388.8366 618,-394.8366 618,-394.8366 618,-423.8366 618,-423.8366 618,-429.8366 612,-435.8366 606,-435.8366"/>
<text text-anchor="middle" x="573" y="-420.6366" font-family="Times,serif" font-size="14.00" fill="#000000">county_X</text>
<text text-anchor="middle" x="573" y="-405.6366" font-family="Times,serif" font-size="14.00" fill="#000000">~</text>
<text text-anchor="middle" x="573" y="-390.6366" font-family="Times,serif" font-size="14.00" fill="#000000">ConstantData</text>
</g>
<!-- county_eps -->
<g id="node10" class="node">
<title>county_eps</title>
<polygon fill="none" stroke="#000000" points="502.5,-324.8833 411.5,-324.8833 411.5,-271.8833 502.5,-271.8833 502.5,-324.8833"/>
<text text-anchor="middle" x="457" y="-309.6833" font-family="Times,serif" font-size="14.00" fill="#000000">county_eps</text>
<text text-anchor="middle" x="457" y="-294.6833" font-family="Times,serif" font-size="14.00" fill="#000000">~</text>
<text text-anchor="middle" x="457" y="-279.6833" font-family="Times,serif" font-size="14.00" fill="#000000">Deterministic</text>
</g>
<!-- county_X&#45;&gt;county_eps -->
<g id="edge2" class="edge">
<title>county_X&#45;&gt;county_eps</title>
<path fill="none" stroke="#000000" d="M547.1865,-382.7037C537.5172,-372.8853 526.3632,-361.7445 516,-351.8366 509.1768,-345.3132 501.795,-338.4661 494.6383,-331.9321"/>
<polygon fill="#000000" stroke="#000000" points="496.7543,-329.1259 486.9979,-324.9952 492.0489,-334.3085 496.7543,-329.1259"/>
</g>
<!-- ls -->
<g id="node4" class="node">
<title>ls</title>
<ellipse fill="none" stroke="#000000" cx="722" cy="-409.3366" rx="43.2674" ry="37.4533"/>
<text text-anchor="middle" x="722" y="-420.6366" font-family="Times,serif" font-size="14.00" fill="#000000">ls</text>
<text text-anchor="middle" x="722" y="-405.6366" font-family="Times,serif" font-size="14.00" fill="#000000">~</text>
<text text-anchor="middle" x="722" y="-390.6366" font-family="Times,serif" font-size="14.00" fill="#000000">Gamma</text>
</g>
<!-- ls&#45;&gt;county_eps -->
<g id="edge1" class="edge">
<title>ls&#45;&gt;county_eps</title>
<path fill="none" stroke="#000000" d="M701.9599,-375.9689C694.6659,-366.6291 685.5723,-357.4938 675,-351.8366 610.4291,-317.2852 579.746,-361.1027 511,-335.86 506.7888,-334.3136 502.5975,-332.3585 498.5193,-330.1565"/>
<polygon fill="#000000" stroke="#000000" points="500.1975,-327.0827 489.8085,-325.0046 496.634,-333.1078 500.1975,-327.0827"/>
</g>
<!-- measurement_error -->
<g id="node5" class="node">
<title>measurement_error</title>
<ellipse fill="none" stroke="#000000" cx="219" cy="-187.43" rx="86.9483" ry="37.4533"/>
<text text-anchor="middle" x="219" y="-198.73" font-family="Times,serif" font-size="14.00" fill="#000000">measurement_error</text>
<text text-anchor="middle" x="219" y="-183.73" font-family="Times,serif" font-size="14.00" fill="#000000">~</text>
<text text-anchor="middle" x="219" y="-168.73" font-family="Times,serif" font-size="14.00" fill="#000000">HalfNormal</text>
</g>
<!-- measurement_error&#45;&gt;log_radon -->
<g id="edge7" class="edge">
<title>measurement_error&#45;&gt;log_radon</title>
<path fill="none" stroke="#000000" d="M174.3348,-155.0394C154.2685,-140.4877 130.6456,-123.3567 110.5884,-108.8115"/>
<polygon fill="#000000" stroke="#000000" points="112.3818,-105.7886 102.2316,-102.7513 108.2723,-111.4554 112.3818,-105.7886"/>
</g>
<!-- state_scale -->
<g id="node6" class="node">
<title>state_scale</title>
<ellipse fill="none" stroke="#000000" cx="579" cy="-298.3833" rx="58.8803" ry="37.4533"/>
<text text-anchor="middle" x="579" y="-309.6833" font-family="Times,serif" font-size="14.00" fill="#000000">state_scale</text>
<text text-anchor="middle" x="579" y="-294.6833" font-family="Times,serif" font-size="14.00" fill="#000000">~</text>
<text text-anchor="middle" x="579" y="-279.6833" font-family="Times,serif" font-size="14.00" fill="#000000">HalfNormal</text>
</g>
<!-- county_mu -->
<g id="node8" class="node">
<title>county_mu</title>
<polygon fill="none" stroke="#000000" points="502.5,-213.93 411.5,-213.93 411.5,-160.93 502.5,-160.93 502.5,-213.93"/>
<text text-anchor="middle" x="457" y="-198.73" font-family="Times,serif" font-size="14.00" fill="#000000">county_mu</text>
<text text-anchor="middle" x="457" y="-183.73" font-family="Times,serif" font-size="14.00" fill="#000000">~</text>
<text text-anchor="middle" x="457" y="-168.73" font-family="Times,serif" font-size="14.00" fill="#000000">Deterministic</text>
</g>
<!-- state_scale&#45;&gt;county_mu -->
<g id="edge5" class="edge">
<title>state_scale&#45;&gt;county_mu</title>
<path fill="none" stroke="#000000" d="M545.0162,-267.4766C529.1414,-253.0393 510.2076,-235.8198 493.9751,-221.0571"/>
<polygon fill="#000000" stroke="#000000" points="496.0017,-218.1692 486.2487,-214.0303 491.2919,-223.3479 496.0017,-218.1692"/>
</g>
<!-- state_mu -->
<g id="node7" class="node">
<title>state_mu</title>
<ellipse fill="none" stroke="#000000" cx="702" cy="-298.3833" rx="46.8387" ry="37.4533"/>
<text text-anchor="middle" x="702" y="-309.6833" font-family="Times,serif" font-size="14.00" fill="#000000">state_mu</text>
<text text-anchor="middle" x="702" y="-294.6833" font-family="Times,serif" font-size="14.00" fill="#000000">~</text>
<text text-anchor="middle" x="702" y="-279.6833" font-family="Times,serif" font-size="14.00" fill="#000000">Normal</text>
</g>
<!-- state_mu&#45;&gt;county_mu -->
<g id="edge6" class="edge">
<title>state_mu&#45;&gt;county_mu</title>
<path fill="none" stroke="#000000" d="M667.2394,-272.9544C660.6777,-268.6607 653.7516,-264.4523 647,-260.9066 603.4132,-238.0169 551.0494,-218.2949 512.3414,-205.0636"/>
<polygon fill="#000000" stroke="#000000" points="513.4025,-201.7278 502.8083,-201.8416 511.1612,-208.3593 513.4025,-201.7278"/>
</g>
<!-- county_mu&#45;&gt;log_radon -->
<g id="edge9" class="edge">
<title>county_mu&#45;&gt;log_radon</title>
<path fill="none" stroke="#000000" d="M411.3658,-166.5958C383.8753,-154.6417 347.9243,-140.0464 315,-129.93 251.2078,-110.3291 176.08,-95.2597 125.1595,-86.1921"/>
<polygon fill="#000000" stroke="#000000" points="125.7639,-82.7447 115.3087,-84.459 124.551,-89.6389 125.7639,-82.7447"/>
</g>
<!-- county_eps_rotated_ -->
<g id="node9" class="node">
<title>county_eps_rotated_</title>
<ellipse fill="none" stroke="#000000" cx="413" cy="-409.3366" rx="91.4341" ry="37.4533"/>
<text text-anchor="middle" x="413" y="-420.6366" font-family="Times,serif" font-size="14.00" fill="#000000">county_eps_rotated_</text>
<text text-anchor="middle" x="413" y="-405.6366" font-family="Times,serif" font-size="14.00" fill="#000000">~</text>
<text text-anchor="middle" x="413" y="-390.6366" font-family="Times,serif" font-size="14.00" fill="#000000">Normal</text>
</g>
<!-- county_eps_rotated_&#45;&gt;county_eps -->
<g id="edge3" class="edge">
<title>county_eps_rotated_&#45;&gt;county_eps</title>
<path fill="none" stroke="#000000" d="M427.7738,-372.0821C432.5805,-359.9612 437.9049,-346.5349 442.6779,-334.4987"/>
<polygon fill="#000000" stroke="#000000" points="445.9343,-335.7816 446.3672,-325.1956 439.4273,-333.2011 445.9343,-335.7816"/>
</g>
<!-- county_eps&#45;&gt;county_mu -->
<g id="edge4" class="edge">
<title>county_eps&#45;&gt;county_mu</title>
<path fill="none" stroke="#000000" d="M457,-271.8072C457,-257.6388 457,-239.9811 457,-224.4861"/>
<polygon fill="#000000" stroke="#000000" points="460.5001,-224.1737 457,-214.1738 453.5001,-224.1738 460.5001,-224.1737"/>
</g>
</g>
</svg>
