<?xml version="1.0" encoding="UTF-8" standalone="no"?>
<!DOCTYPE svg PUBLIC "-//W3C//DTD SVG 1.1//EN"
 "http://www.w3.org/Graphics/SVG/1.1/DTD/svg11.dtd">
<!-- Generated by graphviz version 2.40.1 (20161225.0304)
 -->
<!-- Title: %3 Pages: 1 -->
<svg width="711pt" height="582pt"
 viewBox="0.00 0.00 710.67 581.79" xmlns="http://www.w3.org/2000/svg" xmlns:xlink="http://www.w3.org/1999/xlink">
<g id="graph0" class="graph" transform="scale(1 1) rotate(0) translate(4 577.7899)">
<title>%3</title>
<polygon fill="#ffffff" stroke="transparent" points="-4,4 -4,-577.7899 706.669,-577.7899 706.669,4 -4,4"/>
<g id="clust1" class="cluster">
<title>clusterhousehold (919)</title>
<path fill="none" stroke="#000000" d="M62.669,-8C62.669,-8 154.669,-8 154.669,-8 160.669,-8 166.669,-14 166.669,-20 166.669,-20 166.669,-209.93 166.669,-209.93 166.669,-215.93 160.669,-221.93 154.669,-221.93 154.669,-221.93 62.669,-221.93 62.669,-221.93 56.669,-221.93 50.669,-215.93 50.669,-209.93 50.669,-209.93 50.669,-20 50.669,-20 50.669,-14 56.669,-8 62.669,-8"/>
<text text-anchor="middle" x="114.169" y="-15.8" font-family="Times,serif" font-size="14.00" fill="#000000">household (919)</text>
</g>
<g id="clust2" class="cluster">
<title>clustercounty (85) x feature (2)</title>
<path fill="none" stroke="#000000" d="M319.669,-462.8133C319.669,-462.8133 446.669,-462.8133 446.669,-462.8133 452.669,-462.8133 458.669,-468.8133 458.669,-474.8133 458.669,-474.8133 458.669,-542.8133 458.669,-542.8133 458.669,-548.8133 452.669,-554.8133 446.669,-554.8133 446.669,-554.8133 319.669,-554.8133 319.669,-554.8133 313.669,-554.8133 307.669,-548.8133 307.669,-542.8133 307.669,-542.8133 307.669,-474.8133 307.669,-474.8133 307.669,-468.8133 313.669,-462.8133 319.669,-462.8133"/>
<text text-anchor="middle" x="383.169" y="-470.6133" font-family="Times,serif" font-size="14.00" fill="#000000">county (85) x feature (2)</text>
</g>
<g id="clust3" class="cluster">
<title>clustercounty (85)</title>
<path fill="none" stroke="#000000" d="M113.669,-240.8833C113.669,-240.8833 287.669,-240.8833 287.669,-240.8833 293.669,-240.8833 299.669,-246.8833 299.669,-252.8833 299.669,-252.8833 299.669,-553.7899 299.669,-553.7899 299.669,-559.7899 293.669,-565.7899 287.669,-565.7899 287.669,-565.7899 113.669,-565.7899 113.669,-565.7899 107.669,-565.7899 101.669,-559.7899 101.669,-553.7899 101.669,-553.7899 101.669,-252.8833 101.669,-252.8833 101.669,-246.8833 107.669,-240.8833 113.669,-240.8833"/>
<text text-anchor="middle" x="259.669" y="-248.6833" font-family="Times,serif" font-size="14.00" fill="#000000">county (85)</text>
</g>
<g id="clust4" class="cluster">
<title>clustercond_county (39) x feature (2)</title>
<path fill="none" stroke="#000000" d="M522.669,-351.86C522.669,-351.86 682.669,-351.86 682.669,-351.86 688.669,-351.86 694.669,-357.86 694.669,-363.86 694.669,-363.86 694.669,-431.86 694.669,-431.86 694.669,-437.86 688.669,-443.86 682.669,-443.86 682.669,-443.86 522.669,-443.86 522.669,-443.86 516.669,-443.86 510.669,-437.86 510.669,-431.86 510.669,-431.86 510.669,-363.86 510.669,-363.86 510.669,-357.86 516.669,-351.86 522.669,-351.86"/>
<text text-anchor="middle" x="602.669" y="-359.66" font-family="Times,serif" font-size="14.00" fill="#000000">cond_county (39) x feature (2)</text>
</g>
<g id="clust5" class="cluster">
<title>clustercond_county (39)</title>
<path fill="none" stroke="#000000" d="M398.669,-8C398.669,-8 546.669,-8 546.669,-8 552.669,-8 558.669,-14 558.669,-20 558.669,-20 558.669,-331.86 558.669,-331.86 558.669,-337.86 552.669,-343.86 546.669,-343.86 546.669,-343.86 398.669,-343.86 398.669,-343.86 392.669,-343.86 386.669,-337.86 386.669,-331.86 386.669,-331.86 386.669,-20 386.669,-20 386.669,-14 392.669,-8 398.669,-8"/>
<text text-anchor="middle" x="502.169" y="-15.8" font-family="Times,serif" font-size="14.00" fill="#000000">cond_county (39)</text>
</g>
<!-- county_idx -->
<g id="node1" class="node">
<title>county_idx</title>
<path fill="#d3d3d3" stroke="#000000" d="M136.669,-213.93C136.669,-213.93 70.669,-213.93 70.669,-213.93 64.669,-213.93 58.669,-207.93 58.669,-201.93 58.669,-201.93 58.669,-172.93 58.669,-172.93 58.669,-166.93 64.669,-160.93 70.669,-160.93 70.669,-160.93 136.669,-160.93 136.669,-160.93 142.669,-160.93 148.669,-166.93 148.669,-172.93 148.669,-172.93 148.669,-201.93 148.669,-201.93 148.669,-207.93 142.669,-213.93 136.669,-213.93"/>
<text text-anchor="middle" x="103.669" y="-198.73" font-family="Times,serif" font-size="14.00" fill="#000000">county_idx</text>
<text text-anchor="middle" x="103.669" y="-183.73" font-family="Times,serif" font-size="14.00" fill="#000000">~</text>
<text text-anchor="middle" x="103.669" y="-168.73" font-family="Times,serif" font-size="14.00" fill="#000000">ConstantData</text>
</g>
<!-- log_radon -->
<g id="node2" class="node">
<title>log_radon</title>
<ellipse fill="#d3d3d3" stroke="#000000" cx="108.669" cy="-76.4767" rx="50.41" ry="37.4533"/>
<text text-anchor="middle" x="108.669" y="-87.7767" font-family="Times,serif" font-size="14.00" fill="#000000">log_radon</text>
<text text-anchor="middle" x="108.669" y="-72.7767" font-family="Times,serif" font-size="14.00" fill="#000000">~</text>
<text text-anchor="middle" x="108.669" y="-57.7767" font-family="Times,serif" font-size="14.00" fill="#000000">Normal</text>
</g>
<!-- county_idx&#45;&gt;log_radon -->
<g id="edge8" class="edge">
<title>county_idx&#45;&gt;log_radon</title>
<path fill="none" stroke="#000000" d="M104.8667,-160.8539C105.3587,-149.9351 105.9441,-136.944 106.5064,-124.4675"/>
<polygon fill="#000000" stroke="#000000" points="110.0168,-124.3124 106.9707,-114.165 103.0239,-123.9972 110.0168,-124.3124"/>
</g>
<!-- county_X -->
<g id="node3" class="node">
<title>county_X</title>
<path fill="#d3d3d3" stroke="#000000" d="M414.669,-546.8133C414.669,-546.8133 348.669,-546.8133 348.669,-546.8133 342.669,-546.8133 336.669,-540.8133 336.669,-534.8133 336.669,-534.8133 336.669,-505.8133 336.669,-505.8133 336.669,-499.8133 342.669,-493.8133 348.669,-493.8133 348.669,-493.8133 414.669,-493.8133 414.669,-493.8133 420.669,-493.8133 426.669,-499.8133 426.669,-505.8133 426.669,-505.8133 426.669,-534.8133 426.669,-534.8133 426.669,-540.8133 420.669,-546.8133 414.669,-546.8133"/>
<text text-anchor="middle" x="381.669" y="-531.6133" font-family="Times,serif" font-size="14.00" fill="#000000">county_X</text>
<text text-anchor="middle" x="381.669" y="-516.6133" font-family="Times,serif" font-size="14.00" fill="#000000">~</text>
<text text-anchor="middle" x="381.669" y="-501.6133" font-family="Times,serif" font-size="14.00" fill="#000000">ConstantData</text>
</g>
<!-- county_eps -->
<g id="node10" class="node">
<title>county_eps</title>
<polygon fill="none" stroke="#000000" points="290.169,-435.86 199.169,-435.86 199.169,-382.86 290.169,-382.86 290.169,-435.86"/>
<text text-anchor="middle" x="244.669" y="-420.66" font-family="Times,serif" font-size="14.00" fill="#000000">county_eps</text>
<text text-anchor="middle" x="244.669" y="-405.66" font-family="Times,serif" font-size="14.00" fill="#000000">~</text>
<text text-anchor="middle" x="244.669" y="-390.66" font-family="Times,serif" font-size="14.00" fill="#000000">Deterministic</text>
</g>
<!-- county_X&#45;&gt;county_eps -->
<g id="edge2" class="edge">
<title>county_X&#45;&gt;county_eps</title>
<path fill="none" stroke="#000000" d="M348.8541,-493.7372C329.8457,-478.3427 305.7509,-458.8288 285.5216,-442.4456"/>
<polygon fill="#000000" stroke="#000000" points="287.6649,-439.6775 277.691,-436.1037 283.2594,-445.1173 287.6649,-439.6775"/>
</g>
<!-- cond_county_eps -->
<g id="node13" class="node">
<title>cond_county_eps</title>
<ellipse fill="none" stroke="#000000" cx="472.669" cy="-298.3833" rx="78.4777" ry="37.4533"/>
<text text-anchor="middle" x="472.669" y="-309.6833" font-family="Times,serif" font-size="14.00" fill="#000000">cond_county_eps</text>
<text text-anchor="middle" x="472.669" y="-294.6833" font-family="Times,serif" font-size="14.00" fill="#000000">~</text>
<text text-anchor="middle" x="472.669" y="-279.6833" font-family="Times,serif" font-size="14.00" fill="#000000">MvNormal</text>
</g>
<!-- county_X&#45;&gt;cond_county_eps -->
<g id="edge11" class="edge">
<title>county_X&#45;&gt;cond_county_eps</title>
<path fill="none" stroke="#000000" d="M404.6773,-493.5922C415.1274,-480.284 426.8683,-463.504 434.669,-446.8366 449.6496,-414.8285 459.3151,-376.0664 465.1479,-346.178"/>
<polygon fill="#000000" stroke="#000000" points="468.653,-346.4752 467.0536,-336.0018 461.7726,-345.1867 468.653,-346.4752"/>
</g>
<!-- ls -->
<g id="node4" class="node">
<title>ls</title>
<ellipse fill="none" stroke="#000000" cx="509.669" cy="-520.3133" rx="43.2674" ry="37.4533"/>
<text text-anchor="middle" x="509.669" y="-531.6133" font-family="Times,serif" font-size="14.00" fill="#000000">ls</text>
<text text-anchor="middle" x="509.669" y="-516.6133" font-family="Times,serif" font-size="14.00" fill="#000000">~</text>
<text text-anchor="middle" x="509.669" y="-501.6133" font-family="Times,serif" font-size="14.00" fill="#000000">Gamma</text>
</g>
<!-- ls&#45;&gt;county_eps -->
<g id="edge1" class="edge">
<title>ls&#45;&gt;county_eps</title>
<path fill="none" stroke="#000000" d="M489.6289,-486.9456C482.3349,-477.6058 473.2413,-468.4704 462.669,-462.8133 398.0981,-428.2618 367.4151,-472.0793 298.669,-446.8366 294.4578,-445.2903 290.2665,-443.3351 286.1884,-441.1331"/>
<polygon fill="#000000" stroke="#000000" points="287.8666,-438.0594 277.4775,-435.9812 284.3031,-444.0845 287.8666,-438.0594"/>
</g>
<!-- ls&#45;&gt;cond_county_eps -->
<g id="edge10" class="edge">
<title>ls&#45;&gt;cond_county_eps</title>
<path fill="none" stroke="#000000" d="M503.4761,-483.1672C497.1986,-445.5145 487.4613,-387.1088 480.6178,-346.0607"/>
<polygon fill="#000000" stroke="#000000" points="484.041,-345.3101 478.9441,-336.0219 477.1363,-346.4613 484.041,-345.3101"/>
</g>
<!-- measurement_error -->
<g id="node5" class="node">
<title>measurement_error</title>
<ellipse fill="none" stroke="#000000" cx="291.669" cy="-187.43" rx="86.9483" ry="37.4533"/>
<text text-anchor="middle" x="291.669" y="-198.73" font-family="Times,serif" font-size="14.00" fill="#000000">measurement_error</text>
<text text-anchor="middle" x="291.669" y="-183.73" font-family="Times,serif" font-size="14.00" fill="#000000">~</text>
<text text-anchor="middle" x="291.669" y="-168.73" font-family="Times,serif" font-size="14.00" fill="#000000">HalfNormal</text>
</g>
<!-- measurement_error&#45;&gt;log_radon -->
<g id="edge7" class="edge">
<title>measurement_error&#45;&gt;log_radon</title>
<path fill="none" stroke="#000000" d="M241.1791,-156.8178C214.6601,-140.7393 182.3465,-121.1474 156.2683,-105.3362"/>
<polygon fill="#000000" stroke="#000000" points="158.0465,-102.3213 147.6808,-100.1296 154.4173,-108.307 158.0465,-102.3213"/>
</g>
<!-- cond_log_radon -->
<g id="node14" class="node">
<title>cond_log_radon</title>
<ellipse fill="none" stroke="#000000" cx="468.669" cy="-76.4767" rx="73.5782" ry="37.4533"/>
<text text-anchor="middle" x="468.669" y="-87.7767" font-family="Times,serif" font-size="14.00" fill="#000000">cond_log_radon</text>
<text text-anchor="middle" x="468.669" y="-72.7767" font-family="Times,serif" font-size="14.00" fill="#000000">~</text>
<text text-anchor="middle" x="468.669" y="-57.7767" font-family="Times,serif" font-size="14.00" fill="#000000">Normal</text>
</g>
<!-- measurement_error&#45;&gt;cond_log_radon -->
<g id="edge18" class="edge">
<title>measurement_error&#45;&gt;cond_log_radon</title>
<path fill="none" stroke="#000000" d="M340.9734,-156.5233C363.4678,-142.4226 390.1958,-125.668 413.3711,-111.1404"/>
<polygon fill="#000000" stroke="#000000" points="415.4492,-113.9687 422.0631,-105.6918 411.7312,-108.0376 415.4492,-113.9687"/>
</g>
<!-- state_scale -->
<g id="node6" class="node">
<title>state_scale</title>
<ellipse fill="none" stroke="#000000" cx="366.669" cy="-409.36" rx="58.8803" ry="37.4533"/>
<text text-anchor="middle" x="366.669" y="-420.66" font-family="Times,serif" font-size="14.00" fill="#000000">state_scale</text>
<text text-anchor="middle" x="366.669" y="-405.66" font-family="Times,serif" font-size="14.00" fill="#000000">~</text>
<text text-anchor="middle" x="366.669" y="-390.66" font-family="Times,serif" font-size="14.00" fill="#000000">HalfNormal</text>
</g>
<!-- county_mu -->
<g id="node8" class="node">
<title>county_mu</title>
<polygon fill="none" stroke="#000000" points="256.169,-324.8833 165.169,-324.8833 165.169,-271.8833 256.169,-271.8833 256.169,-324.8833"/>
<text text-anchor="middle" x="210.669" y="-309.6833" font-family="Times,serif" font-size="14.00" fill="#000000">county_mu</text>
<text text-anchor="middle" x="210.669" y="-294.6833" font-family="Times,serif" font-size="14.00" fill="#000000">~</text>
<text text-anchor="middle" x="210.669" y="-279.6833" font-family="Times,serif" font-size="14.00" fill="#000000">Deterministic</text>
</g>
<!-- state_scale&#45;&gt;county_mu -->
<g id="edge5" class="edge">
<title>state_scale&#45;&gt;county_mu</title>
<path fill="none" stroke="#000000" d="M334.8054,-377.8006C325.1692,-368.9513 314.3119,-359.6332 303.669,-351.86 291.6931,-343.1132 278.17,-334.634 265.2207,-327.1022"/>
<polygon fill="#000000" stroke="#000000" points="266.7926,-323.9693 256.3736,-322.0475 263.3201,-330.0473 266.7926,-323.9693"/>
</g>
<!-- cond_county_mu -->
<g id="node12" class="node">
<title>cond_county_mu</title>
<polygon fill="none" stroke="#000000" points="515.169,-213.93 404.169,-213.93 404.169,-160.93 515.169,-160.93 515.169,-213.93"/>
<text text-anchor="middle" x="459.669" y="-198.73" font-family="Times,serif" font-size="14.00" fill="#000000">cond_county_mu</text>
<text text-anchor="middle" x="459.669" y="-183.73" font-family="Times,serif" font-size="14.00" fill="#000000">~</text>
<text text-anchor="middle" x="459.669" y="-168.73" font-family="Times,serif" font-size="14.00" fill="#000000">Deterministic</text>
</g>
<!-- state_scale&#45;&gt;cond_county_mu -->
<g id="edge15" class="edge">
<title>state_scale&#45;&gt;cond_county_mu</title>
<path fill="none" stroke="#000000" d="M362.5759,-371.8482C360.469,-335.8036 362.2077,-281.0389 385.669,-240.8833 390.0363,-233.4084 395.9091,-226.6898 402.446,-220.7449"/>
<polygon fill="#000000" stroke="#000000" points="404.9432,-223.2195 410.3745,-214.1227 400.4558,-217.847 404.9432,-223.2195"/>
</g>
<!-- state_mu -->
<g id="node7" class="node">
<title>state_mu</title>
<ellipse fill="none" stroke="#000000" cx="46.669" cy="-409.36" rx="46.8387" ry="37.4533"/>
<text text-anchor="middle" x="46.669" y="-420.66" font-family="Times,serif" font-size="14.00" fill="#000000">state_mu</text>
<text text-anchor="middle" x="46.669" y="-405.66" font-family="Times,serif" font-size="14.00" fill="#000000">~</text>
<text text-anchor="middle" x="46.669" y="-390.66" font-family="Times,serif" font-size="14.00" fill="#000000">Normal</text>
</g>
<!-- state_mu&#45;&gt;county_mu -->
<g id="edge6" class="edge">
<title>state_mu&#45;&gt;county_mu</title>
<path fill="none" stroke="#000000" d="M71.0732,-377.274C78.9073,-368.3129 88.0626,-359.0666 97.669,-351.86 115.2002,-338.7082 136.4822,-327.6116 155.8286,-318.995"/>
<polygon fill="#000000" stroke="#000000" points="157.3561,-322.1477 165.1455,-314.9661 154.5777,-315.7227 157.3561,-322.1477"/>
</g>
<!-- state_mu&#45;&gt;cond_county_mu -->
<g id="edge16" class="edge">
<title>state_mu&#45;&gt;cond_county_mu</title>
<path fill="none" stroke="#000000" d="M46.4254,-371.7195C48.4127,-332.2812 58.259,-271.8467 97.669,-240.8833 123.0449,-220.9462 356.5455,-233.4359 387.669,-224.9066 393.8231,-223.2201 400.0528,-220.9577 406.1387,-218.3759"/>
<polygon fill="#000000" stroke="#000000" points="407.8999,-221.4199 415.5526,-214.0928 405.0009,-215.0484 407.8999,-221.4199"/>
</g>
<!-- county_mu&#45;&gt;log_radon -->
<g id="edge9" class="edge">
<title>county_mu&#45;&gt;log_radon</title>
<path fill="none" stroke="#000000" d="M203.3437,-271.8428C194.4867,-241.5092 178.1826,-190.7856 157.669,-149.9533 152.2378,-139.1424 145.4995,-128.0154 138.7758,-117.7941"/>
<polygon fill="#000000" stroke="#000000" points="141.6467,-115.7912 133.1604,-109.4482 135.8389,-119.6989 141.6467,-115.7912"/>
</g>
<!-- county_eps_rotated_ -->
<g id="node9" class="node">
<title>county_eps_rotated_</title>
<ellipse fill="none" stroke="#000000" cx="200.669" cy="-520.3133" rx="91.4341" ry="37.4533"/>
<text text-anchor="middle" x="200.669" y="-531.6133" font-family="Times,serif" font-size="14.00" fill="#000000">county_eps_rotated_</text>
<text text-anchor="middle" x="200.669" y="-516.6133" font-family="Times,serif" font-size="14.00" fill="#000000">~</text>
<text text-anchor="middle" x="200.669" y="-501.6133" font-family="Times,serif" font-size="14.00" fill="#000000">Normal</text>
</g>
<!-- county_eps_rotated_&#45;&gt;county_eps -->
<g id="edge3" class="edge">
<title>county_eps_rotated_&#45;&gt;county_eps</title>
<path fill="none" stroke="#000000" d="M215.4428,-483.0588C220.2495,-470.9379 225.5739,-457.5115 230.347,-445.4754"/>
<polygon fill="#000000" stroke="#000000" points="233.6034,-446.7582 234.0363,-436.1722 227.0964,-444.1777 233.6034,-446.7582"/>
</g>
<!-- county_eps&#45;&gt;county_mu -->
<g id="edge4" class="edge">
<title>county_eps&#45;&gt;county_mu</title>
<path fill="none" stroke="#000000" d="M236.5252,-382.7783C232.1418,-368.4706 226.6684,-350.6055 221.8876,-335.0007"/>
<polygon fill="#000000" stroke="#000000" points="225.1401,-333.6688 218.8643,-325.1327 218.4472,-335.7193 225.1401,-333.6688"/>
</g>
<!-- county_eps&#45;&gt;cond_county_eps -->
<g id="edge13" class="edge">
<title>county_eps&#45;&gt;cond_county_eps</title>
<path fill="none" stroke="#000000" d="M264.6012,-382.6562C273.9041,-371.7803 285.7695,-359.902 298.669,-351.86 326.016,-334.8108 359.1848,-322.859 389.1984,-314.6489"/>
<polygon fill="#000000" stroke="#000000" points="390.4627,-317.9355 399.2429,-312.0061 388.6815,-311.1659 390.4627,-317.9355"/>
</g>
<!-- cond_X -->
<g id="node11" class="node">
<title>cond_X</title>
<path fill="#d3d3d3" stroke="#000000" d="M597.669,-435.86C597.669,-435.86 531.669,-435.86 531.669,-435.86 525.669,-435.86 519.669,-429.86 519.669,-423.86 519.669,-423.86 519.669,-394.86 519.669,-394.86 519.669,-388.86 525.669,-382.86 531.669,-382.86 531.669,-382.86 597.669,-382.86 597.669,-382.86 603.669,-382.86 609.669,-388.86 609.669,-394.86 609.669,-394.86 609.669,-423.86 609.669,-423.86 609.669,-429.86 603.669,-435.86 597.669,-435.86"/>
<text text-anchor="middle" x="564.669" y="-420.66" font-family="Times,serif" font-size="14.00" fill="#000000">cond_X</text>
<text text-anchor="middle" x="564.669" y="-405.66" font-family="Times,serif" font-size="14.00" fill="#000000">~</text>
<text text-anchor="middle" x="564.669" y="-390.66" font-family="Times,serif" font-size="14.00" fill="#000000">ConstantData</text>
</g>
<!-- cond_X&#45;&gt;cond_county_eps -->
<g id="edge12" class="edge">
<title>cond_X&#45;&gt;cond_county_eps</title>
<path fill="none" stroke="#000000" d="M542.6328,-382.7783C532.4121,-370.4495 520.0017,-355.4791 508.4873,-341.5897"/>
<polygon fill="#000000" stroke="#000000" points="510.9114,-339.0297 501.8347,-333.5649 505.5224,-343.4973 510.9114,-339.0297"/>
</g>
<!-- cond_county_mu&#45;&gt;cond_log_radon -->
<g id="edge17" class="edge">
<title>cond_county_mu&#45;&gt;cond_log_radon</title>
<path fill="none" stroke="#000000" d="M461.8248,-160.8539C462.7105,-149.9351 463.7642,-136.944 464.7763,-124.4675"/>
<polygon fill="#000000" stroke="#000000" points="468.2919,-124.4152 465.612,-114.165 461.3148,-123.8492 468.2919,-124.4152"/>
</g>
<!-- cond_county_eps&#45;&gt;cond_county_mu -->
<g id="edge14" class="edge">
<title>cond_county_eps&#45;&gt;cond_county_mu</title>
<path fill="none" stroke="#000000" d="M468.2678,-260.8196C466.8777,-248.9552 465.3442,-235.8664 463.9617,-224.0676"/>
<polygon fill="#000000" stroke="#000000" points="467.4332,-223.619 462.7932,-214.0943 460.4808,-224.4337 467.4332,-223.619"/>
</g>
</g>
</svg>
