<?xml version="1.0" encoding="UTF-8" standalone="no"?>
<!DOCTYPE svg PUBLIC "-//W3C//DTD SVG 1.1//EN"
 "http://www.w3.org/Graphics/SVG/1.1/DTD/svg11.dtd">
<!-- Generated by graphviz version 2.43.0 (0)
 -->
<!-- Title: %3 Pages: 1 -->
<svg width="154pt" height="338pt"
 viewBox="0.00 0.00 154.00 337.91" xmlns="http://www.w3.org/2000/svg" xmlns:xlink="http://www.w3.org/1999/xlink">
<g id="graph0" class="graph" transform="scale(1 1) rotate(0) translate(4 333.91)">
<title>%3</title>
<polygon fill="white" stroke="transparent" points="-4,4 -4,-333.91 150,-333.91 150,4 -4,4"/>
<g id="clust1" class="cluster">
<title>cluster3</title>
<path fill="none" stroke="black" d="M20,-8C20,-8 126,-8 126,-8 132,-8 138,-14 138,-20 138,-20 138,-309.91 138,-309.91 138,-315.91 132,-321.91 126,-321.91 126,-321.91 20,-321.91 20,-321.91 14,-321.91 8,-315.91 8,-309.91 8,-309.91 8,-20 8,-20 8,-14 14,-8 20,-8"/>
<text text-anchor="middle" x="125" y="-15.8" font-family="Times,serif" font-size="14.00">3</text>
</g>
<!-- x -->
<g id="node1" class="node">
<title>x</title>
<ellipse fill="none" stroke="black" cx="73" cy="-276.43" rx="49.49" ry="37.45"/>
<text text-anchor="middle" x="73" y="-287.73" font-family="Times,serif" font-size="14.00">x</text>
<text text-anchor="middle" x="73" y="-272.73" font-family="Times,serif" font-size="14.00">~</text>
<text text-anchor="middle" x="73" y="-257.73" font-family="Times,serif" font-size="14.00">Normal</text>
</g>
<!-- y -->
<g id="node2" class="node">
<title>y</title>
<polygon fill="none" stroke="black" points="130,-202.95 16,-202.95 16,-149.95 130,-149.95 130,-202.95"/>
<text text-anchor="middle" x="73" y="-187.75" font-family="Times,serif" font-size="14.00">y</text>
<text text-anchor="middle" x="73" y="-172.75" font-family="Times,serif" font-size="14.00">~</text>
<text text-anchor="middle" x="73" y="-157.75" font-family="Times,serif" font-size="14.00">Deterministic</text>
</g>
<!-- x&#45;&gt;y -->
<g id="edge1" class="edge">
<title>x&#45;&gt;y</title>
<path fill="none" stroke="black" d="M73,-238.95C73,-230.53 73,-221.59 73,-213.2"/>
<polygon fill="black" stroke="black" points="76.5,-212.96 73,-202.96 69.5,-212.96 76.5,-212.96"/>
</g>
<!-- z -->
<g id="node3" class="node">
<title>z</title>
<ellipse fill="lightgrey" stroke="black" cx="73" cy="-76.48" rx="49.49" ry="37.45"/>
<text text-anchor="middle" x="73" y="-87.78" font-family="Times,serif" font-size="14.00">z</text>
<text text-anchor="middle" x="73" y="-72.78" font-family="Times,serif" font-size="14.00">~</text>
<text text-anchor="middle" x="73" y="-57.78" font-family="Times,serif" font-size="14.00">Normal</text>
</g>
<!-- y&#45;&gt;z -->
<g id="edge2" class="edge">
<title>y&#45;&gt;z</title>
<path fill="none" stroke="black" d="M73,-149.71C73,-141.89 73,-133.03 73,-124.27"/>
<polygon fill="black" stroke="black" points="76.5,-124.1 73,-114.1 69.5,-124.1 76.5,-124.1"/>
</g>
</g>
</svg>
