<?xml version="1.0" encoding="UTF-8" standalone="no"?>
<!DOCTYPE svg PUBLIC "-//W3C//DTD SVG 1.1//EN"
 "http://www.w3.org/Graphics/SVG/1.1/DTD/svg11.dtd">
<!-- Generated by graphviz version 2.43.0 (0)
 -->
<!-- Title: %3 Pages: 1 -->
<svg width="266pt" height="233pt"
 viewBox="0.00 0.00 266.21 232.91" xmlns="http://www.w3.org/2000/svg" xmlns:xlink="http://www.w3.org/1999/xlink">
<g id="graph0" class="graph" transform="scale(1 1) rotate(0) translate(4 228.91)">
<title>%3</title>
<polygon fill="white" stroke="transparent" points="-4,4 -4,-228.91 262.21,-228.91 262.21,4 -4,4"/>
<g id="clust1" class="cluster">
<title>cluster4</title>
<path fill="none" stroke="black" d="M73.5,-8C73.5,-8 163.5,-8 163.5,-8 169.5,-8 175.5,-14 175.5,-20 175.5,-20 175.5,-109.95 175.5,-109.95 175.5,-115.95 169.5,-121.95 163.5,-121.95 163.5,-121.95 73.5,-121.95 73.5,-121.95 67.5,-121.95 61.5,-115.95 61.5,-109.95 61.5,-109.95 61.5,-20 61.5,-20 61.5,-14 67.5,-8 73.5,-8"/>
<text text-anchor="middle" x="162.5" y="-15.8" font-family="Times,serif" font-size="14.00">4</text>
</g>
<!-- y0 -->
<g id="node1" class="node">
<title>y0</title>
<ellipse fill="none" stroke="black" cx="49.5" cy="-187.43" rx="49.49" ry="37.45"/>
<text text-anchor="middle" x="49.5" y="-198.73" font-family="Times,serif" font-size="14.00">y0</text>
<text text-anchor="middle" x="49.5" y="-183.73" font-family="Times,serif" font-size="14.00">~</text>
<text text-anchor="middle" x="49.5" y="-168.73" font-family="Times,serif" font-size="14.00">Normal</text>
</g>
<!-- llike -->
<g id="node3" class="node">
<title>llike</title>
<ellipse fill="lightgrey" stroke="black" cx="118.5" cy="-76.48" rx="49.49" ry="37.45"/>
<text text-anchor="middle" x="118.5" y="-87.78" font-family="Times,serif" font-size="14.00">llike</text>
<text text-anchor="middle" x="118.5" y="-72.78" font-family="Times,serif" font-size="14.00">~</text>
<text text-anchor="middle" x="118.5" y="-57.78" font-family="Times,serif" font-size="14.00">Normal</text>
</g>
<!-- y0&#45;&gt;llike -->
<g id="edge1" class="edge">
<title>y0&#45;&gt;llike</title>
<path fill="none" stroke="black" d="M70.39,-153.44C77.21,-142.66 84.89,-130.55 92.07,-119.21"/>
<polygon fill="black" stroke="black" points="95.05,-121.05 97.44,-110.73 89.13,-117.3 95.05,-121.05"/>
</g>
<!-- noise -->
<g id="node2" class="node">
<title>noise</title>
<ellipse fill="none" stroke="black" cx="187.5" cy="-187.43" rx="70.92" ry="37.45"/>
<text text-anchor="middle" x="187.5" y="-198.73" font-family="Times,serif" font-size="14.00">noise</text>
<text text-anchor="middle" x="187.5" y="-183.73" font-family="Times,serif" font-size="14.00">~</text>
<text text-anchor="middle" x="187.5" y="-168.73" font-family="Times,serif" font-size="14.00">HalfNormal</text>
</g>
<!-- noise&#45;&gt;llike -->
<g id="edge2" class="edge">
<title>noise&#45;&gt;llike</title>
<path fill="none" stroke="black" d="M165.48,-151.66C159.01,-141.44 151.86,-130.15 145.13,-119.53"/>
<polygon fill="black" stroke="black" points="147.91,-117.38 139.6,-110.81 142,-121.13 147.91,-117.38"/>
</g>
</g>
</svg>
