<?xml version="1.0" encoding="UTF-8" standalone="no"?>
<!DOCTYPE svg PUBLIC "-//W3C//DTD SVG 1.1//EN"
 "http://www.w3.org/Graphics/SVG/1.1/DTD/svg11.dtd">
<!-- Generated by graphviz version 2.43.0 (0)
 -->
<!-- Title: %3 Pages: 1 -->
<svg width="1528pt" height="260pt"
 viewBox="0.00 0.00 1528.00 259.91" xmlns="http://www.w3.org/2000/svg" xmlns:xlink="http://www.w3.org/1999/xlink">
<g id="graph0" class="graph" transform="scale(1 1) rotate(0) translate(4 255.91)">
<title>%3</title>
<polygon fill="white" stroke="transparent" points="-4,4 -4,-255.91 1524,-255.91 1524,4 -4,4"/>
<g id="clust1" class="cluster">
<title>cluster32</title>
<path fill="none" stroke="black" d="M20,-129.95C20,-129.95 160,-129.95 160,-129.95 166,-129.95 172,-135.95 172,-141.95 172,-141.95 172,-231.91 172,-231.91 172,-237.91 166,-243.91 160,-243.91 160,-243.91 20,-243.91 20,-243.91 14,-243.91 8,-237.91 8,-231.91 8,-231.91 8,-141.95 8,-141.95 8,-135.95 14,-129.95 20,-129.95"/>
<text text-anchor="middle" x="154.5" y="-137.75" font-family="Times,serif" font-size="14.00">32</text>
</g>
<g id="clust2" class="cluster">
<title>cluster3 x 3 x 1 x 32</title>
<path fill="none" stroke="black" d="M192,-129.95C192,-129.95 354,-129.95 354,-129.95 360,-129.95 366,-135.95 366,-141.95 366,-141.95 366,-231.91 366,-231.91 366,-237.91 360,-243.91 354,-243.91 354,-243.91 192,-243.91 192,-243.91 186,-243.91 180,-237.91 180,-231.91 180,-231.91 180,-141.95 180,-141.95 180,-135.95 186,-129.95 192,-129.95"/>
<text text-anchor="middle" x="309.5" y="-137.75" font-family="Times,serif" font-size="14.00">3 x 3 x 1 x 32</text>
</g>
<g id="clust3" class="cluster">
<title>cluster64</title>
<path fill="none" stroke="black" d="M386,-129.95C386,-129.95 526,-129.95 526,-129.95 532,-129.95 538,-135.95 538,-141.95 538,-141.95 538,-231.91 538,-231.91 538,-237.91 532,-243.91 526,-243.91 526,-243.91 386,-243.91 386,-243.91 380,-243.91 374,-237.91 374,-231.91 374,-231.91 374,-141.95 374,-141.95 374,-135.95 380,-129.95 386,-129.95"/>
<text text-anchor="middle" x="520.5" y="-137.75" font-family="Times,serif" font-size="14.00">64</text>
</g>
<g id="clust4" class="cluster">
<title>cluster3 x 3 x 32 x 64</title>
<path fill="none" stroke="black" d="M558,-129.95C558,-129.95 720,-129.95 720,-129.95 726,-129.95 732,-135.95 732,-141.95 732,-141.95 732,-231.91 732,-231.91 732,-237.91 726,-243.91 720,-243.91 720,-243.91 558,-243.91 558,-243.91 552,-243.91 546,-237.91 546,-231.91 546,-231.91 546,-141.95 546,-141.95 546,-135.95 552,-129.95 558,-129.95"/>
<text text-anchor="middle" x="671" y="-137.75" font-family="Times,serif" font-size="14.00">3 x 3 x 32 x 64</text>
</g>
<g id="clust5" class="cluster">
<title>cluster256</title>
<path fill="none" stroke="black" d="M752,-129.95C752,-129.95 904,-129.95 904,-129.95 910,-129.95 916,-135.95 916,-141.95 916,-141.95 916,-231.91 916,-231.91 916,-237.91 910,-243.91 904,-243.91 904,-243.91 752,-243.91 752,-243.91 746,-243.91 740,-237.91 740,-231.91 740,-231.91 740,-141.95 740,-141.95 740,-135.95 746,-129.95 752,-129.95"/>
<text text-anchor="middle" x="894" y="-137.75" font-family="Times,serif" font-size="14.00">256</text>
</g>
<g id="clust6" class="cluster">
<title>cluster3136 x 256</title>
<path fill="none" stroke="black" d="M936,-129.95C936,-129.95 1110,-129.95 1110,-129.95 1116,-129.95 1122,-135.95 1122,-141.95 1122,-141.95 1122,-231.91 1122,-231.91 1122,-237.91 1116,-243.91 1110,-243.91 1110,-243.91 936,-243.91 936,-243.91 930,-243.91 924,-237.91 924,-231.91 924,-231.91 924,-141.95 924,-141.95 924,-135.95 930,-129.95 936,-129.95"/>
<text text-anchor="middle" x="1073.5" y="-137.75" font-family="Times,serif" font-size="14.00">3136 x 256</text>
</g>
<g id="clust7" class="cluster">
<title>cluster10</title>
<path fill="none" stroke="black" d="M1142,-129.95C1142,-129.95 1294,-129.95 1294,-129.95 1300,-129.95 1306,-135.95 1306,-141.95 1306,-141.95 1306,-231.91 1306,-231.91 1306,-237.91 1300,-243.91 1294,-243.91 1294,-243.91 1142,-243.91 1142,-243.91 1136,-243.91 1130,-237.91 1130,-231.91 1130,-231.91 1130,-141.95 1130,-141.95 1130,-135.95 1136,-129.95 1142,-129.95"/>
<text text-anchor="middle" x="1288.5" y="-137.75" font-family="Times,serif" font-size="14.00">10</text>
</g>
<g id="clust8" class="cluster">
<title>cluster256 x 10</title>
<path fill="none" stroke="black" d="M1326,-129.95C1326,-129.95 1500,-129.95 1500,-129.95 1506,-129.95 1512,-135.95 1512,-141.95 1512,-141.95 1512,-231.91 1512,-231.91 1512,-237.91 1506,-243.91 1500,-243.91 1500,-243.91 1326,-243.91 1326,-243.91 1320,-243.91 1314,-237.91 1314,-231.91 1314,-231.91 1314,-141.95 1314,-141.95 1314,-135.95 1320,-129.95 1326,-129.95"/>
<text text-anchor="middle" x="1472.5" y="-137.75" font-family="Times,serif" font-size="14.00">256 x 10</text>
</g>
<g id="clust9" class="cluster">
<title>cluster1000</title>
<path fill="none" stroke="black" d="M668,-8C668,-8 798,-8 798,-8 804,-8 810,-14 810,-20 810,-20 810,-109.95 810,-109.95 810,-115.95 804,-121.95 798,-121.95 798,-121.95 668,-121.95 668,-121.95 662,-121.95 656,-115.95 656,-109.95 656,-109.95 656,-20 656,-20 656,-14 662,-8 668,-8"/>
<text text-anchor="middle" x="783.5" y="-15.8" font-family="Times,serif" font-size="14.00">1000</text>
</g>
<!-- Conv_0_bias -->
<g id="node1" class="node">
<title>Conv_0_bias</title>
<ellipse fill="none" stroke="black" cx="90" cy="-198.43" rx="73.58" ry="37.45"/>
<text text-anchor="middle" x="90" y="-209.73" font-family="Times,serif" font-size="14.00">Conv_0_bias</text>
<text text-anchor="middle" x="90" y="-194.73" font-family="Times,serif" font-size="14.00">~</text>
<text text-anchor="middle" x="90" y="-179.73" font-family="Times,serif" font-size="14.00">Normal</text>
</g>
<!-- label -->
<g id="node9" class="node">
<title>label</title>
<ellipse fill="lightgrey" stroke="black" cx="733" cy="-76.48" rx="69.09" ry="37.45"/>
<text text-anchor="middle" x="733" y="-87.78" font-family="Times,serif" font-size="14.00">label</text>
<text text-anchor="middle" x="733" y="-72.78" font-family="Times,serif" font-size="14.00">~</text>
<text text-anchor="middle" x="733" y="-57.78" font-family="Times,serif" font-size="14.00">Categorical</text>
</g>
<!-- Conv_0_bias&#45;&gt;label -->
<g id="edge7" class="edge">
<title>Conv_0_bias&#45;&gt;label</title>
<path fill="none" stroke="black" d="M122.69,-164.52C137.67,-151.48 156.43,-137.76 176,-129.95 260.74,-96.15 521.05,-83.7 653.62,-79.47"/>
<polygon fill="black" stroke="black" points="653.83,-82.96 663.72,-79.15 653.62,-75.96 653.83,-82.96"/>
</g>
<!-- Conv_0_kernel -->
<g id="node2" class="node">
<title>Conv_0_kernel</title>
<ellipse fill="none" stroke="black" cx="273" cy="-198.43" rx="84.71" ry="37.45"/>
<text text-anchor="middle" x="273" y="-209.73" font-family="Times,serif" font-size="14.00">Conv_0_kernel</text>
<text text-anchor="middle" x="273" y="-194.73" font-family="Times,serif" font-size="14.00">~</text>
<text text-anchor="middle" x="273" y="-179.73" font-family="Times,serif" font-size="14.00">Normal</text>
</g>
<!-- Conv_0_kernel&#45;&gt;label -->
<g id="edge8" class="edge">
<title>Conv_0_kernel&#45;&gt;label</title>
<path fill="none" stroke="black" d="M311.18,-164.7C328.15,-151.86 349.01,-138.23 370,-129.95 462.78,-93.36 577.92,-81.9 653.32,-78.52"/>
<polygon fill="black" stroke="black" points="653.84,-82 663.69,-78.09 653.56,-75.01 653.84,-82"/>
</g>
<!-- Conv_1_bias -->
<g id="node3" class="node">
<title>Conv_1_bias</title>
<ellipse fill="none" stroke="black" cx="456" cy="-198.43" rx="73.58" ry="37.45"/>
<text text-anchor="middle" x="456" y="-209.73" font-family="Times,serif" font-size="14.00">Conv_1_bias</text>
<text text-anchor="middle" x="456" y="-194.73" font-family="Times,serif" font-size="14.00">~</text>
<text text-anchor="middle" x="456" y="-179.73" font-family="Times,serif" font-size="14.00">Normal</text>
</g>
<!-- Conv_1_bias&#45;&gt;label -->
<g id="edge2" class="edge">
<title>Conv_1_bias&#45;&gt;label</title>
<path fill="none" stroke="black" d="M490.64,-165.1C505.53,-152.63 523.7,-139.18 542,-129.95 578.07,-111.78 621.25,-99.24 657.42,-90.98"/>
<polygon fill="black" stroke="black" points="658.42,-94.34 667.43,-88.77 656.91,-87.51 658.42,-94.34"/>
</g>
<!-- Conv_1_kernel -->
<g id="node4" class="node">
<title>Conv_1_kernel</title>
<ellipse fill="none" stroke="black" cx="639" cy="-198.43" rx="84.71" ry="37.45"/>
<text text-anchor="middle" x="639" y="-209.73" font-family="Times,serif" font-size="14.00">Conv_1_kernel</text>
<text text-anchor="middle" x="639" y="-194.73" font-family="Times,serif" font-size="14.00">~</text>
<text text-anchor="middle" x="639" y="-179.73" font-family="Times,serif" font-size="14.00">Normal</text>
</g>
<!-- Conv_1_kernel&#45;&gt;label -->
<g id="edge3" class="edge">
<title>Conv_1_kernel&#45;&gt;label</title>
<path fill="none" stroke="black" d="M666.19,-162.73C676.8,-149.2 689.05,-133.56 700.14,-119.4"/>
<polygon fill="black" stroke="black" points="703.11,-121.3 706.52,-111.27 697.6,-116.98 703.11,-121.3"/>
</g>
<!-- Dense_0_bias -->
<g id="node5" class="node">
<title>Dense_0_bias</title>
<ellipse fill="none" stroke="black" cx="828" cy="-198.43" rx="79.81" ry="37.45"/>
<text text-anchor="middle" x="828" y="-209.73" font-family="Times,serif" font-size="14.00">Dense_0_bias</text>
<text text-anchor="middle" x="828" y="-194.73" font-family="Times,serif" font-size="14.00">~</text>
<text text-anchor="middle" x="828" y="-179.73" font-family="Times,serif" font-size="14.00">Normal</text>
</g>
<!-- Dense_0_bias&#45;&gt;label -->
<g id="edge6" class="edge">
<title>Dense_0_bias&#45;&gt;label</title>
<path fill="none" stroke="black" d="M800.78,-163.06C790.05,-149.51 777.63,-133.83 766.37,-119.61"/>
<polygon fill="black" stroke="black" points="768.85,-117.11 759.9,-111.44 763.36,-121.45 768.85,-117.11"/>
</g>
<!-- Dense_0_kernel -->
<g id="node6" class="node">
<title>Dense_0_kernel</title>
<ellipse fill="none" stroke="black" cx="1023" cy="-198.43" rx="90.52" ry="37.45"/>
<text text-anchor="middle" x="1023" y="-209.73" font-family="Times,serif" font-size="14.00">Dense_0_kernel</text>
<text text-anchor="middle" x="1023" y="-194.73" font-family="Times,serif" font-size="14.00">~</text>
<text text-anchor="middle" x="1023" y="-179.73" font-family="Times,serif" font-size="14.00">Normal</text>
</g>
<!-- Dense_0_kernel&#45;&gt;label -->
<g id="edge5" class="edge">
<title>Dense_0_kernel&#45;&gt;label</title>
<path fill="none" stroke="black" d="M980.35,-165.26C962.43,-152.89 940.92,-139.47 920,-129.95 884.38,-113.76 842.63,-101.46 807.62,-92.86"/>
<polygon fill="black" stroke="black" points="808.01,-89.35 797.47,-90.42 806.37,-96.16 808.01,-89.35"/>
</g>
<!-- Dense_1_bias -->
<g id="node7" class="node">
<title>Dense_1_bias</title>
<ellipse fill="none" stroke="black" cx="1218" cy="-198.43" rx="79.81" ry="37.45"/>
<text text-anchor="middle" x="1218" y="-209.73" font-family="Times,serif" font-size="14.00">Dense_1_bias</text>
<text text-anchor="middle" x="1218" y="-194.73" font-family="Times,serif" font-size="14.00">~</text>
<text text-anchor="middle" x="1218" y="-179.73" font-family="Times,serif" font-size="14.00">Normal</text>
</g>
<!-- Dense_1_bias&#45;&gt;label -->
<g id="edge4" class="edge">
<title>Dense_1_bias&#45;&gt;label</title>
<path fill="none" stroke="black" d="M1182.08,-164.56C1166.04,-151.69 1146.21,-138.09 1126,-129.95 1070.57,-107.64 909.59,-91.45 811.7,-83.35"/>
<polygon fill="black" stroke="black" points="811.8,-79.85 801.55,-82.52 811.23,-86.82 811.8,-79.85"/>
</g>
<!-- Dense_1_kernel -->
<g id="node8" class="node">
<title>Dense_1_kernel</title>
<ellipse fill="none" stroke="black" cx="1413" cy="-198.43" rx="90.52" ry="37.45"/>
<text text-anchor="middle" x="1413" y="-209.73" font-family="Times,serif" font-size="14.00">Dense_1_kernel</text>
<text text-anchor="middle" x="1413" y="-194.73" font-family="Times,serif" font-size="14.00">~</text>
<text text-anchor="middle" x="1413" y="-179.73" font-family="Times,serif" font-size="14.00">Normal</text>
</g>
<!-- Dense_1_kernel&#45;&gt;label -->
<g id="edge1" class="edge">
<title>Dense_1_kernel&#45;&gt;label</title>
<path fill="none" stroke="black" d="M1372.87,-164.53C1354.75,-151.49 1332.41,-137.76 1310,-129.95 1220.26,-98.68 948.65,-84.98 812.54,-79.95"/>
<polygon fill="black" stroke="black" points="812.3,-76.44 802.18,-79.58 812.05,-83.44 812.3,-76.44"/>
</g>
</g>
</svg>
